<svg height='300px' width='300px'  fill="#FFFFFF" xmlns="http://www.w3.org/2000/svg" xmlns:xlink="http://www.w3.org/1999/xlink" version="1.1" x="0px" y="0px" viewBox="0 0 60 60" style="enable-background:new 0 0 60 60;" xml:space="preserve"><path d="M23.81,44.25c0-0.84-0.68-1.52-1.51-1.52c-0.84,0-1.52,0.68-1.52,1.52c0,0.83,0.68,1.51,1.52,1.51  C23.13,45.76,23.81,45.08,23.81,44.25z"></path><path d="M50.8,5.01h-4.02v10.85c1.37,0.43,2.38,1.7,2.38,3.21c0,1.86-1.51,3.38-3.38,3.38s-3.38-1.51-3.38-3.38  c0-1.51,1-2.78,2.38-3.21V5.01h-5.88v13.82l-2.92,3.73c0.39,0.55,0.62,1.21,0.62,1.94c0,1.86-1.51,3.37-3.37,3.37  s-3.37-1.51-3.37-3.37s1.51-3.37,3.37-3.37c0.41,0,0.79,0.08,1.16,0.22l2.51-3.21V5.01H9.2c-2.31,0-4.19,1.88-4.19,4.19v4.12h15.63  l3.73,2.92c0.55-0.39,1.21-0.62,1.94-0.62c1.86,0,3.37,1.51,3.37,3.37c0,1.86-1.51,3.37-3.37,3.37s-3.37-1.51-3.37-3.37  c0-0.41,0.08-0.79,0.22-1.16l-3.21-2.51H5.01v6.18h10.98l2.3,2.64c0.29-0.1,0.59-0.17,0.91-0.17c1.53,0,2.77,1.24,2.77,2.77  c0,1.53-1.24,2.77-2.77,2.77c-1.53,0-2.77-1.24-2.77-2.77c0-0.47,0.13-0.91,0.34-1.3l-1.69-1.94H5.01V50.8  c0,2.31,1.88,4.19,4.19,4.19h3.98V41.5c-1.57-0.44-2.73-1.87-2.73-3.57c0-2.05,1.67-3.72,3.72-3.72s3.72,1.67,3.72,3.72  c0,1.7-1.16,3.13-2.72,3.57v13.5h6.12v-7.4c-1.45-0.43-2.52-1.76-2.52-3.35c0-1.94,1.58-3.52,3.52-3.52c1.94,0,3.51,1.58,3.51,3.52  c0,1.59-1.06,2.91-2.51,3.35v7.4h27.5c2.31,0,4.19-1.88,4.19-4.19V39.15h-6.75l-2.37,2.37c0.22,0.44,0.35,0.93,0.35,1.45  c0,1.83-1.49,3.32-3.32,3.32s-3.32-1.49-3.32-3.32s1.49-3.32,3.32-3.32c0.58,0,1.11,0.16,1.59,0.42l2.92-2.92h7.58V31H47.9  l-5.13,4.55h-7.24c-0.43,1.45-1.76,2.51-3.35,2.51c-1.94,0-3.52-1.58-3.52-3.52s1.58-3.52,3.52-3.52c1.59,0,2.92,1.07,3.35,2.52  h6.48L47.14,29h7.85V9.2C54.99,6.89,53.11,5.01,50.8,5.01z"></path><path d="M45.78,20.43c0.76,0,1.38-0.62,1.38-1.38c0-0.76-0.62-1.38-1.38-1.38s-1.38,0.62-1.38,1.38  C44.41,19.82,45.03,20.43,45.78,20.43z"></path><path d="M15.9,37.93c0-0.95-0.77-1.72-1.72-1.72s-1.72,0.77-1.72,1.72s0.77,1.72,1.72,1.72S15.9,38.88,15.9,37.93z"></path><path d="M27.68,18.98c0-0.75-0.61-1.37-1.37-1.37s-1.37,0.61-1.37,1.37c0,0.75,0.61,1.37,1.37,1.37S27.68,19.73,27.68,18.98z"></path><path d="M19.97,26.73c0-0.43-0.35-0.77-0.77-0.77c-0.42,0-0.77,0.35-0.77,0.77c0,0.42,0.35,0.77,0.77,0.77  C19.63,27.5,19.97,27.16,19.97,26.73z"></path><path d="M41.58,42.97c0,0.73,0.59,1.32,1.32,1.32c0.73,0,1.32-0.59,1.32-1.32s-0.59-1.32-1.32-1.32  C42.17,41.65,41.58,42.24,41.58,42.97z"></path><path d="M30.66,34.54c0,0.84,0.68,1.52,1.52,1.52c0.83,0,1.51-0.68,1.51-1.52s-0.68-1.52-1.51-1.52  C31.34,33.03,30.66,33.71,30.66,34.54z"></path><circle cx="33.24" cy="24.5" r="1.37"></circle></svg>