<svg height='300px' width='300px'  fill="#FFFFFF" xmlns="http://www.w3.org/2000/svg" viewBox="0 0 32 32" x="0px" y="0px"><title>protein, egg, food, fried egg, organic, food and restaurant_1</title><g data-name="Layer 2"><path d="M16,2C9.805,2,5,11.139,5,19c0,6.888,4.112,11,11,11s11-4.112,11-11C27,11.139,22.2,2,16,2Zm0,26c-3.361,0-9-1.169-9-9,0-6.752,4.153-15,9-15s9,8.248,9,15C25,26.831,19.361,28,16,28Z"></path><path d="M16,13a6,6,0,1,0,6,6A6.006,6.006,0,0,0,16,13Zm0,10a4,4,0,1,1,4-4A4,4,0,0,1,16,23Z"></path></g></svg>