<svg height='300px' width='300px'  fill="#FFFFFF" xmlns="http://www.w3.org/2000/svg" xmlns:xlink="http://www.w3.org/1999/xlink" version="1.1" x="0px" y="0px" viewBox="0 0 512 512" style="enable-background:new 0 0 512 512;" xml:space="preserve"><title>Livestock-climatechange-farm-farming-cattle</title><path d="M448,384h-16c-13.2,0-24-10.8-24-24v-28c0-6.6-5.4-12-12-12c-5.1,0-9.6,3.2-11.3,8H368v16h17.7c0.7,2.5,1.7,4.9,2.8,7.2  l3.5,7V399c0,8.7,3.5,17.1,9.7,23.3c1.9,1.9,4,3.6,6.3,5V480h16v-48c0.3,0,0.6,0,1,0h15v48h16v-51.4c14.6-6.4,24-20.8,24-36.6v-20.3  C471.2,379.6,459.8,384,448,384z"></path><path d="M278.2,421.8l-6.2-4.2V472c0,4.4,3.6,8,8,8s8-3.6,8-8v-32C288,432.7,284.3,425.8,278.2,421.8z"></path><path d="M311.1,343.5c-4.5,3-7.1,8-7.1,13.3V368h-16v-11.2c0-10.7,5.3-20.7,14.2-26.6l5.3-3.5c-5.6-4.3-12.5-6.7-19.5-6.7H119.7  c-7.3,0-14.2-3.3-18.7-9l-12.2-15.3c-6.1-7.7-14.8-13-24.4-14.9c1.2,9.1,5.4,17.6,11.9,24.1l5.1,5.1l-14.9,37.3  c-2.9,7.1-9,12.5-16.5,14.4l-11.9,3c-3.6,0.9-6.1,4.1-6.1,7.8v1c0,3.2,1.9,6.1,4.8,7.4L88,402.7v69c-0.1,4.3,3.2,7.9,7.5,8.3  c4.4,0.3,8.2-3,8.5-7.5c0-0.2,0-0.4,0-0.5v-48c0-4.4,3.6-8,8-8s8,3.6,8,8v47.7c-0.1,4.3,3.2,7.9,7.5,8.3c4.4,0.3,8.2-3,8.5-7.5  c0-0.2,0-0.4,0-0.5v-27.9c-0.1-9.6,3.6-18.8,10.3-25.7c3.7-3.6,5.7-8.6,5.7-13.7V376h16v28.7c0,5.8-1.4,11.6-4.2,16.7  c29.2,14.8,63.8,14,92.2-2.2v-12.3c-10-7.1-16-18.6-16-30.9h16c0,7.3,3.7,14.2,9.8,18.2l21.4,14.3c10.6,7,16.9,18.9,16.9,31.5v31.7  c-0.1,4.3,3.2,7.9,7.5,8.3c4.4,0.3,8.2-3,8.5-7.5c0-0.2,0-0.4,0-0.5V352c0-4.3-0.9-8.7-2.6-12.6L311.1,343.5z M104,352H88v-16h16  V352z"></path><path d="M256.7,117.4c1.7,1.7,4,2.6,6.3,2.6h24c5,0,9-4,9-9c0-6.6,2.6-13,7.3-17.7L316.7,80H240v17c0,2.4,0.9,4.7,2.6,6.3  L256.7,117.4z"></path><path d="M368,264c0,4.4,3.6,8,8,8s8-3.6,8-8v-64h2.5c8.1,8.8,12.8,20.1,13.5,32h0.1v31.7c-0.1,4.3,3.2,7.9,7.5,8.3  c4.4,0.3,8.2-3,8.5-7.5c0-0.2,0-0.4,0-0.5V152h-7c-13.7,0-24.9-11.1-25-24.8c0-2.4-0.9-4.7-2.6-6.5l-14.1-14.1  c-4.7-4.7-7.3-11-7.3-17.7v-9h-20.7l-24.7,24.7c-1.7,1.7-2.6,4.1-2.6,6.5c-0.1,13.7-11.2,24.8-25,24.8h-24c-6.6,0-13-2.6-17.7-7.3  l-14.1-14.1c-4.7-4.7-7.3-11-7.3-17.7V80h-48l-5.7-5.7l15-15c7.2-7.2,12.1-16.5,13.9-26.6c-10.1,1.8-19.3,6.6-26.6,13.9l-9.4,9.4  H160c0-17.7-14.3-32-32-32h-16v16h16c8.8,0,16,7.2,16,16h-10.7c-6.4,0-12.5,2.5-17,7l-44.5,44.5c-4,3.9-5.8,9.5-4.9,15  c1,5.4,4.7,9.9,9.7,12.1l12.7-19.1l13.3,8.9L94.9,136h31.2c23.1,0,41.8,18.7,41.8,41.8v85.9c-0.1,4.3,3.2,7.9,7.5,8.3  c4.4,0.3,8.2-3,8.5-7.5c0-0.2,0-0.4,0-0.5v-56c0-4.4,3.6-8,8-8s8,3.6,8,8v55.7c-0.1,4.3,3.2,7.9,7.5,8.3c4.4,0.3,8.2-3,8.5-7.5  c0-0.2,0-0.4,0-0.5v-41.6c0-7.7,1.7-15.4,4.8-22.4h20.6c6.4,0,12.5,2.5,17,7l5.3,5.3c0.1,0.1,0.3,0.3,0.4,0.4V232h16v-9.8  c3.8,1.2,7.9,1.8,11.9,1.8h0.2c4,0,8-0.6,11.9-1.8v9.8h16v-19.3c0.1-0.1,0.3-0.2,0.4-0.4l5.3-5.3c4.5-4.5,10.6-7,17-7H368V264z   M128,96h-16V80h16V96z"></path><path d="M379.3,96l13.4,13.4c4.7,4.7,7.3,11,7.3,17.7c0,5,4,9,9,9h7v-16c0-8.7-2.8-17.1-8-24h0c13.2,0,24,10.8,24,24v88h16v-88  c0-22.1-17.9-40-40-40h-32v9c0,2.4,0.9,4.7,2.6,6.3L379.3,96z"></path></svg>