<svg height='300px' width='300px'  fill="#FFFFFF" xmlns="http://www.w3.org/2000/svg" xmlns:xlink="http://www.w3.org/1999/xlink" version="1.1" x="0px" y="0px" viewBox="0 0 100 100" style="enable-background:new 0 0 100 100;" xml:space="preserve"><path d="M13.33,16.06c0,0.27-0.22,0.5-0.5,0.5c-0.27,0-0.5-0.22-0.5-0.5c0-0.27,0.22-0.5,0.5-0.5  C13.1,15.56,13.33,15.78,13.33,16.06z M39.07,88.17c0.04-1.92,3.76-7.78,4.98-9.64c-0.89-0.09-1.6,0.01-2.24,0.1  c-0.55,0.08-1.03,0.14-1.51,0.08c-0.27,2.68-3.58,9.77-3.61,9.85c-0.8,1.69-3.34,2.03-7.43,2.45c-1.81,0.19-2.47,0.57-2.61,0.74  c0.11,0.07,0.45,0.21,1.15,0.17c2.13-0.12,5.15-0.28,5.18-0.28c0.18-0.01,0.34,0.1,0.39,0.28c0.04,0.14,0.15,0.8-1.08,1.42  c0.79,0.09,2.33-0.04,3.28-0.99c1.62-1.62,2.47-1.33,3.73-0.73c0.18,0.08,0.36,0.17,0.55,0.26c0.49,0.21,0.73,0.17,0.78,0.14  c0.01-0.09-0.13-0.41-0.65-0.76c-1.01-0.68-1.11-0.87-1-1.8C39.01,89.15,39.06,88.75,39.07,88.17z M67.05,90.21  c-0.43-0.41-1.08-0.88-1.71-1.34c-0.64-0.46-1.3-0.94-1.75-1.37c-0.23-0.22-0.93-0.88-1.34-5.29c-0.14-1.48-0.2-2.9-0.22-3.63  c-0.47,0.13-1.04,0.23-1.74,0.29c-0.71,0.06-1.3,0.1-1.8,0.1c-0.09,0-0.18,0-0.26,0c0.94,1.95,3.89,8.53,2.44,11.4  c-0.38,0.76-1.03,1.22-1.91,1.36c-1.78,0.29-3.07,0.54-3.93,0.77c-0.7,0.18-1.03,0.32-1.18,0.4c0.1,0.05,0.67,0.24,3.67,0.02  c1.66-0.12,3.24-0.32,3.25-0.32c0.16-0.02,0.31,0.06,0.38,0.2c0.07,0.14,0.05,0.31-0.06,0.43c-0.32,0.34-0.3,0.49-0.3,0.49  c0.06,0.11,0.6,0.22,1.15,0.2c2.46-0.97,2.73-1.96,2.92-2.61c0.1-0.35,0.22-0.79,0.75-0.9c0.51-0.1,1,0.15,1.4,0.35  c0.6,0.31,0.63,0.26,0.7,0.12C67.52,90.87,67.57,90.7,67.05,90.21z M37.58,70.02c-1.42-0.5-2.82-0.99-4.2-1.5  c0.85,0.73,1.67,1.62,2.27,2.67c0.57,1,1.02,1.99,1.41,2.86c0.94,2.08,1.61,3.59,3.24,3.89c0.42,0.08,0.88,0.01,1.41-0.06  c0.79-0.11,1.76-0.25,3.05-0.01c0.01,0,0.01,0,0.02,0c0.11,0.02,0.23,0.04,0.35,0.07c0.81,0.18,1.07-0.14,1.6-0.79  c0.59-0.73,1.37-1.68,3.26-2.06c-1.09-0.55-2.4-1.18-3.99-1.88C43.23,71.99,40.36,70.99,37.58,70.02z M94.49,36.99  c-0.78,1.83-1.64,2.53-2.56,3.28c-0.93,0.76-1.9,1.55-2.82,3.48c-1.79,3.75-2.09,4.01-4.32,5.21c-1.26,0.68-1.82,2.23-2.37,3.74  c-0.52,1.45-1.02,2.81-2.02,3.04c-0.6,0.14-1.03,0.14-1.42,0.14c-1.23,0-1.85,0.11-3.83,2.88c-1.05,1.48-1.36,3.05-1.65,4.58  c-0.49,2.51-0.99,5.11-4.83,7.65c-3.05,2.02-3.98,3.67-4.66,4.88c-0.72,1.29-1.12,2-3.78,2.24c-3.03,0.27-3.46,0.01-5.51-1.24  c-1.51-0.92-3.79-2.31-8.42-4.35c-2.79-1.23-5.68-2.24-8.47-3.22c-2.68-0.94-5.31-1.86-7.78-2.95c-0.37-0.18-0.65-0.3-0.76-0.34  c-4.87-2.25-9-5.24-11.39-10.41c-0.17-0.37-0.34-0.75-0.51-1.12c-4.7-10.15-8.42-18.2-5.34-25.93c0.12,0.02,0.24,0.03,0.35,0.03  c0.43,0,0.82-0.12,1.14-0.36c1.13-0.83,1.26-2.81,1.35-4.25c0.03-0.46,0.06-0.89,0.11-1.07c0.03-0.1,0.05-0.15,0.62-0.06  c0.59,0.09,1.48,0.23,2.09-0.68c0.08-0.12,0.17-0.25,0.26-0.39c0.92-1.33,2.45-3.54,0.75-5.61c-0.68-0.83-1.37-1.23-2.05-1.2  c-0.8,0.04-1.25,0.68-1.27,0.71c-0.12,0.17-0.07,0.41,0.1,0.53c0.17,0.12,0.41,0.07,0.53-0.1c0,0,0.26-0.36,0.68-0.38  c0.42-0.02,0.91,0.3,1.43,0.92c1.34,1.62,0.11,3.4-0.79,4.69c-0.1,0.14-0.19,0.27-0.27,0.4c-0.32,0.48-0.72,0.45-1.34,0.35  c-0.48-0.08-1.21-0.19-1.46,0.58c-0.09,0.27-0.11,0.7-0.15,1.25c-0.08,1.22-0.2,3.07-1.04,3.69c-0.3,0.22-0.69,0.27-1.17,0.15  c-0.14-0.05-1.19-0.44-2.07-1.41c-1.25-1.36-1.6-3.18-1.04-5.4c0.03-0.12,0-0.24-0.08-0.34c-0.07-0.09-0.18-0.13-0.29-0.13  c-0.01,0-0.02,0-0.03,0c-0.09,0.01-1.43,0.12-2.7,0.56c1.34-1.21,2.9-1.85,2.93-1.86c0.19-0.08,0.29-0.3,0.21-0.49  c-0.08-0.19-0.3-0.29-0.49-0.21C8.25,18.5,6.48,19.23,5,20.65c0.25-0.64,0.64-1.31,1.23-1.73c0.16-0.12,0.21-0.34,0.1-0.51  c-0.01-0.02-1.36-2.15-0.65-4.28c0.49-1.48,0.63-2.54,0.64-3.32c0.3,0.3,0.66,0.59,1.02,0.69c0.12,0.03,0.24,0.01,0.34-0.06  c0.1-0.08,0.15-0.19,0.15-0.31C7.8,10.39,7.85,9.26,8.04,8.46c0.2,0.42,0.51,0.88,0.95,1.14C9.1,9.67,9.23,9.68,9.35,9.62  c0.11-0.06,0.19-0.17,0.21-0.3c0.09-0.84,0.4-2.15,0.88-2.88c0.15,0.82,0.41,1.88,0.81,2.18c0.1,0.08,0.24,0.1,0.36,0.05  c0.12-0.05,0.21-0.15,0.24-0.28c0-0.02,0.36-1.63,1.21-2.6c0.11,0.64,0.29,1.55,0.5,1.92c0.07,0.13,0.2,0.2,0.35,0.19  c0.14-0.01,0.27-0.09,0.33-0.23c0.16-0.36,0.62-1.21,1.19-1.73c0.07,0.6,0.19,1.42,0.41,1.79c0.05,0.09,0.14,0.15,0.24,0.18  c0.1,0.02,0.21,0,0.3-0.05c0.01,0,0.54-0.35,1.55-0.69c0.1,0.75,0.36,2.22,0.99,3.13c-0.47,0.28-1.14,0.76-1.38,1.33  c-0.32,0.08-1.08,0.23-2.04,0.11c-1.77-0.23-6.17-0.2-8.88,4.98c-0.1,0.19-0.03,0.42,0.16,0.51c0.06,0.03,0.12,0.04,0.18,0.04  c0.14,0,0.27-0.07,0.34-0.2c2.49-4.76,6.5-4.79,8.11-4.58c1.24,0.16,2.17-0.08,2.47-0.17c0.34,0.06,1.73,0.35,3.45,1.32  c1.83,1.03,4.42,3.05,6.41,6.84c0.54,1.03,1.04,2.06,1.52,3.06c3.02,6.26,5.62,11.67,15.83,10.18c5.97-0.87,8.68-0.93,10.65-0.97  c1.81-0.04,3-0.07,5.45-0.71c2.91-0.76,6.18-2.81,9.21-5.77c3.77-3.68,6.97-8.51,9.53-14.36c0.01-0.02,0.02-0.04,0.02-0.07  c0.01-0.03,0.81-3.3,5.4-5.51c0.63,1.06,2.78,4.51,5.07,5.93c1.05,0.65,0.98,1.54,0.88,2.76c-0.11,1.36-0.24,3.05,1.49,4.57  c2.53,2.22,2.26,3.62,1.65,6.68c-0.08,0.41-0.16,0.83-0.25,1.3c-0.34,1.86,0.04,3.29,0.37,4.55C94.97,33.7,95.33,35.04,94.49,36.99z   M14.09,16.06c0-0.69-0.56-1.26-1.26-1.26c-0.69,0-1.26,0.56-1.26,1.26c0,0.69,0.56,1.26,1.26,1.26  C13.52,17.31,14.09,16.75,14.09,16.06z M71.63,49.9c-1.09-1.26-2.62-2.34-4.19-2.97c-1.85-0.74-3.59-2.19-5.43-3.71  c-3.07-2.54-6.24-5.17-10.35-4.88c-0.21,0.01-0.37,0.2-0.35,0.41c0.01,0.21,0.19,0.37,0.41,0.35c3.8-0.27,6.86,2.26,9.81,4.71  c1.89,1.57,3.67,3.04,5.64,3.83c1.46,0.59,2.89,1.6,3.9,2.76c0.99,1.14,1.28,2.06,1.12,2.47c-0.19,0.51-1.29,0.49-2.87-0.07  c-3.54-1.25-5.96-0.9-8.52-0.53c-2.01,0.29-4.08,0.59-7,0.24c-3.22-0.38-4.46,0.07-5.89,0.6c-1.61,0.59-3.43,1.26-8.93,0.83  c-4.13-0.32-7.21-2.45-9.16-6.32c-1.47-2.92-1.71-5.8-1.71-5.83c-0.02-0.21-0.2-0.37-0.41-0.35c-0.21,0.02-0.37,0.2-0.35,0.41  c0.01,0.12,0.25,3.03,1.78,6.09c2.04,4.08,5.43,6.42,9.79,6.76c1.24,0.1,2.3,0.14,3.22,0.14c3.27,0,4.72-0.53,6.03-1.02  c1.34-0.49,2.5-0.92,5.54-0.56c3.01,0.36,5.24,0.04,7.2-0.25c2.57-0.37,4.79-0.69,8.16,0.5c2.69,0.95,3.57,0.32,3.84-0.38  C73.19,52.34,72.73,51.16,71.63,49.9z"></path></svg>