<svg height='300px' width='300px'  fill="#FFFFFF" xmlns:dc="http://purl.org/dc/elements/1.1/" xmlns:cc="http://creativecommons.org/ns#" xmlns:rdf="http://www.w3.org/1999/02/22-rdf-syntax-ns#" xmlns:svg="http://www.w3.org/2000/svg" xmlns="http://www.w3.org/2000/svg" xmlns:sodipodi="http://sodipodi.sourceforge.net/DTD/sodipodi-0.dtd" xmlns:inkscape="http://www.inkscape.org/namespaces/inkscape" viewBox="0 0 32 32.000001" version="1.1" x="0px" y="0px"><g transform="translate(0,-1020.3622)"><path style="opacity:1;fill:#FFFFFF;fill-opacity:1;stroke:none;stroke-width:0.99999994;stroke-linecap:round;stroke-linejoin:round;stroke-miterlimit:4;stroke-dasharray:none;stroke-dashoffset:0;stroke-opacity:1" d="m 17.294,1022.8704 c -0.8779,-0.099 -2.4863,0.918 -2.4863,0.918 0,0 -1.7931,-0.6336 -2.627,-0.3418 -0.8339,0.2918 -1.8418,1.9063 -1.8418,1.9063 0,0 -1.8909,0.2054 -2.5156,0.83 -0.6248,0.6248 -0.832,2.5176 -0.832,2.5176 0,0 -1.6145,1.008 -1.9063,1.8418 -0.2917,0.8339 0.3418,2.627 0.3418,2.627 0,0 -1.017,1.6083 -0.918,2.4863 0.099,0.8779 1.4493,2.2187 1.4493,2.2187 0,0 -0.2201,1.8906 0.25,2.6387 0.47,0.748 2.2695,1.3711 2.2695,1.3711 0,0 0.621,1.7976 1.3691,2.2676 0.2244,0.1409 0.5544,0.2086 0.9024,0.25 l 0,4.584 c 0,0.4832 0.3918,0.875 0.875,0.875 0.4832,0 0.875,-0.3918 0.875,-0.875 l 0,-4.5723 c 0.023,0.023 1.3348,1.3394 2.2051,1.4375 0.8779,0.099 2.4863,-0.918 2.4863,-0.918 0,0 1.4553,0.5079 2.3535,0.3946 l 0,3.6582 c 0,0.4832 0.3918,0.875 0.875,0.875 0.4832,0 0.875,-0.3918 0.875,-0.875 l 0,-5.1094 c 0.15,-0.2123 0.3652,-0.5078 0.3652,-0.5078 0,0 1.8929,-0.2053 2.5176,-0.8301 0.6249,-0.6247 0.8301,-2.5176 0.8301,-2.5176 0,0 1.6164,-1.006 1.9082,-1.8398 0.2917,-0.8339 -0.3438,-2.6289 -0.3438,-2.6289 0,0 1.019,-1.6086 0.92,-2.4864 -0.099,-0.878 -1.4512,-2.2187 -1.4512,-2.2187 0,0 0.22,-1.8906 -0.25,-2.6387 -0.47,-0.748 -2.2676,-1.3711 -2.2676,-1.3711 0,0 -0.623,-1.7975 -1.3711,-2.2676 -0.748,-0.4702 -2.6386,-0.25 -2.6386,-0.25 0,0 -1.3409,-1.3502 -2.2188,-1.4492 z m -2.9844,8.7403 -0.01,0 a 1.0308562,1.0221665 0 0 1 0.8437,0.4395 1.0308562,1.0221665 0 0 1 0.8457,-0.4395 1.0308562,1.0221665 0 0 1 0.8672,0.4688 1.5840537,1.5707008 0 0 1 0.8223,-0.2285 1.5840537,1.5707008 0 0 1 1.584,1.5703 1.5840537,1.5707008 0 0 1 0,0.053 1.5840537,1.5707008 0 0 1 0.1914,-0.014 1.5840537,1.5707008 0 0 1 1.5839,1.5703 1.5840537,1.5707008 0 0 1 -0.2187,0.795 c 0.4274,0.6189 0.888,0.8401 1.5117,1.1855 0,0 -0.5473,0.8108 -0.9785,0.9668 -0.6303,0.228 -1.5826,0.043 -2.0234,-0.1523 -0.023,0.4077 -0.058,0.8368 -0.127,1.1386 -0.206,0.9079 -0.4598,1.8575 -1.0215,2.5938 -0.4112,0.5389 -0.9852,0.997 -1.623,1.209 -0.3559,0.1183 -0.7677,0.1198 -1.1231,0 -0.6291,-0.2123 -1.1899,-0.6748 -1.5937,-1.209 -0.5584,-0.7389 -0.8094,-1.6874 -1.0215,-2.5938 -0.071,-0.3031 -0.1116,-0.735 -0.1406,-1.1445 -0.4344,0.1975 -1.4043,0.3885 -2.041,0.1582 -0.4312,-0.156 -0.9786,-0.9668 -0.9786,-0.9668 0.6091,-0.3372 1.0634,-0.5591 1.4825,-1.1445 a 1.734916,1.7202913 0 0 1 -0.2637,-0.9063 1.734916,1.7202913 0 0 1 0.9492,-1.5332 1.0308562,1.0221665 0 0 1 0,-0.078 1.0308562,1.0221665 0 0 1 1.0313,-1.0215 1.0308562,1.0221665 0 0 1 0.4375,0.098 1.0308562,1.0221665 0 0 1 1.0097,-0.8164 z"></path><path style="opacity:1;fill:#FFFFFF;fill-opacity:1;stroke:none;stroke-width:0.99999988;stroke-linecap:round;stroke-linejoin:round;stroke-miterlimit:4;stroke-dasharray:none;stroke-dashoffset:0;stroke-opacity:1" d="m 15.2496,1038.3608 a 0.49999994,0.49999994 0 0 1 -0.5,0.5 0.49999994,0.49999994 0 0 1 -0.5,-0.5 0.49999994,0.49999994 0 0 1 0.5,-0.5 0.49999994,0.49999994 0 0 1 0.5,0.5 z"></path><path style="opacity:1;fill:#FFFFFF;fill-opacity:1;stroke:none;stroke-width:0.99999988;stroke-linecap:round;stroke-linejoin:round;stroke-miterlimit:4;stroke-dasharray:none;stroke-dashoffset:0;stroke-opacity:1" d="m 17.7496,1038.3608 a 0.49999994,0.49999994 0 0 1 -0.5,0.5 0.49999994,0.49999994 0 0 1 -0.5,-0.5 0.49999994,0.49999994 0 0 1 0.5,-0.5 0.49999994,0.49999994 0 0 1 0.5,0.5 z"></path></g></svg>