<svg height='300px' width='300px'  fill="#0f1742" xmlns="http://www.w3.org/2000/svg" data-name="Layer 1" viewBox="0 0 100 100" x="0px" y="0px"><title>Scroll up_1</title><path d="M50,90A40,40,0,1,1,90,50,40,40,0,0,1,50,90Zm0-74.36A34.36,34.36,0,1,0,84.36,50,34.41,34.41,0,0,0,50,15.64Z"></path><path d="M70.33,52.42l-6,.21A1.65,1.65,0,0,1,63,52L50,35.49,37,52a1.65,1.65,0,0,1-1.35.63l-6-.21a.81.81,0,0,1-.61-1.32L50,24.88,70.94,51.1A.81.81,0,0,1,70.33,52.42Z"></path><path d="M70.33,72.29l-6,.2A1.62,1.62,0,0,1,63,71.86L50,55.36,37,71.86a1.62,1.62,0,0,1-1.35.63l-6-.2A.82.82,0,0,1,29.06,71L50,44.75,70.94,71A.82.82,0,0,1,70.33,72.29Z"></path></svg>