<svg height='300px' width='300px'  fill="#0f1742" xmlns="http://www.w3.org/2000/svg" data-name="Layer 1" viewBox="0 0 100 100" x="0px" y="0px"><title>Scroll up</title><path d="M90,50A40,40,0,1,0,50,90,40,40,0,0,0,90,50ZM71.87,52.61l-6.47.22a1.76,1.76,0,0,1-1.46-.68L50,34.39,36.06,52.15a1.76,1.76,0,0,1-1.46.68l-6.47-.22a.88.88,0,0,1-.66-1.42L50,23,72.53,51.19A.88.88,0,0,1,71.87,52.61Zm0,21.37-6.47.22a1.76,1.76,0,0,1-1.46-.68L50,55.76,36.06,73.52a1.76,1.76,0,0,1-1.46.68L28.13,74a.88.88,0,0,1-.66-1.42L50,44.35,72.53,72.56A.88.88,0,0,1,71.87,74Z"></path></svg>