<svg height='300px' width='300px'  fill="#FFFFFF" xmlns="http://www.w3.org/2000/svg" data-name="Ebene 1" viewBox="0 0 100 100" x="0px" y="0px"><title>Zeichenfläche 4</title><path d="M81.33,72.46c0-.59.11-1.19.1-1.79,0-1-.08-2-.14-3,0-.09-.11-.2-.2-.26l-6-4.3c-1.16-.82-2.31-1.66-3.66-2.62,1.15-1.94,2.2-3.93,3.45-5.78a9.68,9.68,0,0,0,1.46-6.54,35.52,35.52,0,0,0-.59-4,14.58,14.58,0,0,0-1.06-3.59c-.9-1.81-2.12-3.46-3.09-5.24A31.3,31.3,0,0,0,66.9,29a8.22,8.22,0,0,1-2.4-6.67c.13-1.46,0-2.94,0-4.41,0-1.72-2-3.75-3.52-3.72a19,19,0,0,0-4.33.42c-1.58.39-3.63.78-4.16,2.47-.45,1.45-.64.46-.9.33a6.55,6.55,0,0,0-3-.64,7,7,0,0,0-4.21,1.58A.59.59,0,0,1,43.5,18a.37.37,0,0,0,0-.11,3.44,3.44,0,0,0-3.16-1.69,37,37,0,0,0-4.57-.07,4.17,4.17,0,0,0-4.18,4.76c.17,3.2.54,4.06.19,5.69s-3.7,6-3.82,6.19c-3.08,4.41-7.19,9.38-7.79,10.7-.42.9-1.55,3.37-1.55,8.35,0,2.06,1,3.84,1.86,5.64a8.11,8.11,0,0,0,4.35,4.25.57.57,0,0,1,.26.47c-.17,1.13-.43,2.25-.57,3.39-.2,1.66-.32,3.34-.46,5a13.22,13.22,0,0,0,1.35,6A11.36,11.36,0,0,0,26.43,79c1.43,2.09,3.67,2.9,6,3.53A13.33,13.33,0,0,1,37.6,84.8a6.06,6.06,0,0,0,5.89,1,11.32,11.32,0,0,1,5.12-.69c1,.19,2,.56,3,.66a11.05,11.05,0,0,0,3.3,0,15.6,15.6,0,0,0,2.36-1.16,5.4,5.4,0,0,1,4.25-.34C63.2,85,67.76,88,69,88s12.06-7.38,12.14-8.22C81.42,77.33,81.3,74.89,81.33,72.46ZM53.79,20c.19-.57.8-1,1.23-1.51a4.49,4.49,0,0,1,5.22-.59c1.78,1,2.07,1.75,1.44,3.73a4.36,4.36,0,0,0,0,1.52v.12a.53.53,0,0,1-1,.14,2.41,2.41,0,0,1,0-.6,5,5,0,0,0-1.09-3.34,1.51,1.51,0,0,0-1-.66,4.35,4.35,0,0,0-3.4,1.09A1.61,1.61,0,0,0,54.88,21c.06.6.79,1.4.5,1.9S53.37,21.22,53.79,20ZM41.73,49.9C41.25,56.76,36,59.44,33.14,61c-.92.52-1.75.83-1.59,2.23.22,1.82-.11,3.72.19,5.52a55.81,55.81,0,0,0,1.79,6.92c.41,1.36.76,2.82,2.25,3.5-.18.54-.51.77-1,.41a9.43,9.43,0,0,1-2.06-1.86,19.31,19.31,0,0,1-2.82-6.92c-.26-1.25-.25-2.55-.41-3.82a.37.37,0,0,0-.08-.18.42.42,0,0,0-.73.1s0,.06,0,.09c0,1.2,0,2.4,0,3.6.08,1.53.28,3.07.34,4.61,0,.26-.36.63-.64.77s-.62-.19-.72-.4a6,6,0,0,1-.62-1.81c-.3-2.28-1-6.61.38-9.68.7-1.53,0-2.89-1.31-3.84a10.23,10.23,0,0,1-2.47-2.53,30.53,30.53,0,0,1-2.22-4.29A5.66,5.66,0,0,1,21,51.38a11.3,11.3,0,0,1,1.39-5.48c.47-1,.92-1.95,1.41-2.91.33-.66.73-1.29,1.09-2s7.52-10.23,7.87-11.22c.2-.6,2.05-1.71,1.44-9.78-.09-1.2,1.16-1.14,1.64-1.37a3.86,3.86,0,0,1,3.49.73.53.53,0,0,1,0,.37c-.15.71-1.86.95-2.51,1.05-1.15.18-1.45.91-.84,1.9A2.48,2.48,0,0,1,36.36,24c0,.64-.19,1.27-.23,1.91a12.15,12.15,0,0,1-2,5.57,74,74,0,0,1-4.91,6.33c-.15.19-3.31,4.52-3.31,4.52-.25.42-.57,1-1,1.59-1,1.41-2.08,2.71-2.34,4.55a9.38,9.38,0,0,0,.79,5.16,14.37,14.37,0,0,0,.78,1.51c1.1,1.87,2.36,3.55,4.67,4.07a5.91,5.91,0,0,0,4.5-.3,25.13,25.13,0,0,0,4.41-3.62c.19-.34.5-.91.7-1.24a9,9,0,0,0,1.43-4.24c.1-1.64.2-3.28.24-4.93a23,23,0,0,0-.13-3c-.15-1.35-.45-2.69-.58-4a12.58,12.58,0,0,1,0-2.81,29.62,29.62,0,0,1,.78-3.72A6.79,6.79,0,0,1,41,30a12.48,12.48,0,0,1,3.37-4.48,3.76,3.76,0,0,0,1.53-2.65c.19-1.59.15-1.59,1.64-1.17h0a.49.49,0,0,1,.28.71c-.39.65-.75,1.27-1.16,1.85-.92,1.26-1.85,2.52-2.87,3.69a10.5,10.5,0,0,0-3,6.49C40.5,40.23,42.2,43.05,41.73,49.9ZM53,31.4a19,19,0,0,1-1.47-2.08,3.57,3.57,0,0,0-5.26-.79c-.57.54-1,1.26-1.49,1.83a2.74,2.74,0,0,1-1.23.89c-.71.14-1-.4-.6-1,1.7-2.79,4.08-3.86,7.65-3.37,2,.27,2.8,1.71,3.68,3.15a3.37,3.37,0,0,1,.19.32.92.92,0,0,1-1.45,1.1ZM54.63,55c-1-1.9-1.17-4.07-1.45-6.18a24.63,24.63,0,0,1,2.64-12.54c.06-.11.2-.19.39-.35a3,3,0,0,1,.3,2.23,20.47,20.47,0,0,0-.8,3.22c-.28,2.85-.82,5.68-.39,8.56.11.74.06,1.5.15,2.24a7.6,7.6,0,0,0,5.29,6.7l2.77,1-.07.28a7.3,7.3,0,0,1-4-.62A9.74,9.74,0,0,1,54.63,55Zm25.64,22.1a7.08,7.08,0,0,1-.08,1.46c-.23,1.17-10,7.64-10.2,7.78a1.24,1.24,0,0,1-1.51.15c-1.61-.79-3.21-1.61-4.81-2.43-1-.52-2-1.07-3-1.6-.55-.29-1-.71-1.59-1-.36-.17-.51-1-.55-1.56-.11-1.35-.11-2.72-.15-4.07,0-.94-.07-1.88-.09-2.82,0-1.15,0-2.3-.08-3.44a2.85,2.85,0,0,1,1.43-2.71c1.95-1.43,3.92-2.85,5.91-4.22a29.81,29.81,0,0,1,3.08-1.84,1.43,1.43,0,0,1,1.21,0c1.21.77,2.35,1.67,3.53,2.5,1.44,1,2.91,1.93,4.33,2.93a30.06,30.06,0,0,1,2.41,1.94,1,1,0,0,1,.21.69C80.31,71.57,80.29,74.32,80.27,77.06Z"></path><path d="M77.16,75.42a2,2,0,0,0-1.46.6c-.42.52-.68.59-1.16.18s-.92-.68-1.36-1a.69.69,0,0,1-.25-.47c0-.64,0-1.27.08-1.9a.73.73,0,0,1,.31-.55c.67-.27,1.35-.6,2.09-.07a2.25,2.25,0,0,0,1.17.5h.22l.12,0h0c.26-.09.53-.25.79-.35-.13-.23-.22-.5-.35-.73,0,0,0,0,0-.05l0,0,0,0a1.06,1.06,0,0,0-.17-.2,5.77,5.77,0,0,0-1.38-.64,11.54,11.54,0,0,0,1.53-.88,1.35,1.35,0,0,0,.54-.89,1.26,1.26,0,0,0-.56-.94c-.25-.14-.71,0-1,.12a3.56,3.56,0,0,0-.79.48,2.28,2.28,0,0,0-.15-.33C75,67.71,74.81,67,74.56,67c-.65,0-.77.63-.84,1.19a1.94,1.94,0,0,0,0,.34,2.26,2.26,0,0,1-1.32,2.25l-2-1.36a5.17,5.17,0,0,1,1.18-2.76,5.48,5.48,0,0,0,.76-1,.81.81,0,0,0-.42-1.26,4.67,4.67,0,0,0-1.17-.18l-.12-.84-.23-1.58c-.42.23-.88.37-1.11.53h0s0,0-.06.05l0,0a.36.36,0,0,0,0,.09,13,13,0,0,0,0,2.42,4.12,4.12,0,0,0-1.18-.71l-.17,0h-.22c-.31,0-.64.15-1,.21a7.27,7.27,0,0,0,.38.91h0c.56,1,1.25,1.84,1.71,2.83a1.75,1.75,0,0,1,0,1.57,4.24,4.24,0,0,1-.39.33l-.27.19c-.18.12-.37.23-.57.34-.37.21-.76.41-1.13.63h-.11a.09.09,0,0,1-.06,0L66,71.12,66,71l-.09-.11a.46.46,0,0,1-.07-.07l-.15-.17-.07-.08-.08-.1-.07-.08-.08-.09a.44.44,0,0,0-.08-.11.35.35,0,0,0,0-.08L65.14,70a.43.43,0,0,1,0-.07,1.74,1.74,0,0,1-.1-.19c-.32-.75-.41-1.59-.68-2.37a.92.92,0,0,0-1.27-.56c-.6.22-.43.71-.3,1.16s.19.67.29,1c-.38-.14-.61-.48-.89-.54-.45-.1-1.12-.2-1.37,0-.43.41.13.72.45,1l1.29,1.09a12.75,12.75,0,0,0-1.77.07c-.42.08-.85.29-.58.89a1.68,1.68,0,0,0,2.13.77c.28-.14.55-.31.83-.44a1.48,1.48,0,0,1,2.22,1.39,2.5,2.5,0,0,0,0,.77c.17.5,0,.72-.41,1-1.3,1.19-2.69.55-4,.24-.66-.15-1.3-.25-1.48.45s.36,1,1,1.19l1.53.39c-.43.33-.72.51-1,.74a7.38,7.38,0,0,0-.76.82.83.83,0,0,0,.18,1.28c.4.33.83.42,1.2,0l1-1.28c.17.52.32,1,.5,1.48s.49,1.17,1.19.9.44-1,.35-1.5a.77.77,0,0,0-.07-.16c-.61-1.5-.57-1.7.72-2.74.46-.36,1.12-.95,1.48-.83a4.49,4.49,0,0,1,2,1.43c.24.28.11,1-.08,1.48a9.37,9.37,0,0,1-1.07,1.32c-.25.36-.5.73-.74,1.1L66,82.58a5,5,0,0,0,.76.48h0l.2.08h0l.2,0h.25l.2,0h0l.16,0,0,0a1.22,1.22,0,0,0,.19-.12l0,0a1.14,1.14,0,0,0,.16-.15.12.12,0,0,0,0,0c.06-.07.13-.14.19-.22a18.48,18.48,0,0,0,.36,1.85c.06.18.38.46.5.43a1.07,1.07,0,0,0,.66-.51,2.43,2.43,0,0,0,0-.93c0-.62,0-1.25-.07-1.88l.25-.07.17.21.13.17.18.23.15.18.11.11a2.37,2.37,0,0,0,.28.27c.18.15.74.19.82.07a1.65,1.65,0,0,0,.18-1c0-.16-.27-.29-.39-.45a10.47,10.47,0,0,1-1.35-2,6.51,6.51,0,0,1-.22-2,1.78,1.78,0,0,0,.53-.24l1-.45a1.32,1.32,0,0,1,.69.36,4.89,4.89,0,0,1,1.46,2.61v.23a3,3,0,0,0,.13,1.19c.06.22.32.52.52.54a.77.77,0,0,0,.63-.41,19.58,19.58,0,0,0,.37-2c.19.16.44.33.65.54.42.42,1,.62,1.36.16a.89.89,0,0,0-.29-1.4c-.4-.25-.75-.57-1.2-.92a3.26,3.26,0,0,0,1-.26,2,2,0,0,0,.7-.84A.81.81,0,0,0,77.16,75.42Z"></path></svg>