<svg height='300px' width='300px'  fill="#ffffff" xmlns:dc="http://purl.org/dc/elements/1.1/" xmlns:cc="http://creativecommons.org/ns#" xmlns:rdf="http://www.w3.org/1999/02/22-rdf-syntax-ns#" xmlns:svg="http://www.w3.org/2000/svg" xmlns="http://www.w3.org/2000/svg" xmlns:sodipodi="http://sodipodi.sourceforge.net/DTD/sodipodi-0.dtd" xmlns:inkscape="http://www.inkscape.org/namespaces/inkscape" viewBox="0 0 12.7 12.7" version="1.1" x="0px" y="0px"><g transform="translate(0,-284.29998)"><path style="" d="m 2.5390796,284.82914 a 0.95385527,0.95385527 0 0 0 -0.7492036,0.68925 0.17002972,0.17002972 0 0 1 -0.1444164,0.1241 1.3985686,1.3985686 0 0 0 -1.09489546,0.77945 0.0098636,0.0098636 0 0 0 0,0.005 0.0098636,0.0098636 0 0 0 0,0.005 0.0098636,0.0098636 0 0 0 0.002669,0.003 0.0098636,0.0098636 0 0 0 0.002669,0.003 0.0098636,0.0098636 0 0 0 0.004805,0 H 1.2066845 a 0.17002972,0.17002972 0 0 1 0.1470325,0.25651 0.70718765,0.70718765 0 0 0 0.4077028,1.03702 0.17002972,0.17002972 0 0 1 0.1173217,0.20072 6.8124945,6.8124945 0 0 0 0.1459647,3.57298 4.2363902,4.2363902 0 0 0 2.589165,2.4932 4.037307,4.037307 0 0 0 1.7731721,0.23774 21.303768,21.303768 0 0 1 3.6710067,0.003 3.1543124,3.1543124 0 0 1 1.970791,0.94733 0.03984587,0.03984587 0 0 0 0.06727,-0.0192 2.6005176,2.6005176 0 0 0 -1.165288,-2.72835 15.065948,15.065948 0 0 1 -4.236153,-0.006 3.6369897,3.6369897 0 0 1 -2.9405427,-2.47077 0.08008304,0.08008304 0 0 1 0.151704,-0.05 v 0 a 3.4768236,3.4768236 0 0 0 2.8117691,2.36234 14.905783,14.905783 0 0 0 4.4827816,-0.038 0.5195614,0.5195614 0 0 0 0.416059,-0.65903 4.5355789,4.5355789 0 0 0 -2.7690319,-2.97391 8.3657383,8.3657383 0 0 0 -4.8378169,-0.18614 0.97954975,0.97954975 0 0 1 -1.1772742,-1.25546 1.4325846,1.4325846 0 0 0 -0.3206525,-1.43587 1.0383439,1.0383439 0 0 1 0.038066,-0.88008 0.0098636,0.0098636 0 0 0 0,-0.004 0.0098636,0.0098636 0 0 0 0,-0.006 0.0098636,0.0098636 0 0 0 0,-0.003 0.0098636,0.0098636 0 0 0 -0.00267,-0.003 0.0098636,0.0098636 0 0 0 -0.00267,0 0.0098636,0.0098636 0 0 0 -0.00561,0 z m -0.5286816,1.17728 a 0.1437296,0.1437296 0 0 1 0.1465253,0.14492 0.1437296,0.1437296 0 1 1 -0.2872846,0 0.1437296,0.1437296 0 0 1 0.1407593,-0.14492 z" fill="#ffffff" stroke="none"></path><path style="" d="m 7.0507574,294.34804 -0.1659673,0.0101 -0.3623033,1.77669 a 0.21973919,0.21973919 0 0 1 -0.2146983,0.17583 H 5.7843607 a 0.08008305,0.08008305 0 0 0 0,0.16016 h 0.5234278 a 0.37990532,0.37990532 0 0 0 0.3721907,-0.30398 z" fill="#ffffff" stroke="none"></path></g></svg>