<svg height='300px' width='300px'  fill="#FFFFFF" xmlns="http://www.w3.org/2000/svg" xmlns:xlink="http://www.w3.org/1999/xlink" version="1.1" x="0px" y="0px" viewBox="0 0 160 160" style="enable-background:new 0 0 160 160;" xml:space="preserve"><g><path d="M129.5,27.1c0.2,0,0.4,0,0.6,0.1c-0.7-3.9-4.1-6.9-8.2-6.9c-4.3,0-7.8,3.3-8.2,7.4c1.3-0.4,2.7-0.6,4.1-0.6H129.5z"></path><path d="M40.5,91c2.3-3.8,5.8-6.4,9.9-6.4c7.9,0,13.2,9.5,13.2,18.4c0,1.8-0.2,3.5-0.7,5.1h39.7c0-0.3,0-0.5,0-0.8   c0-8.9,5.3-18.4,13.2-18.4c3.8,0,6.9,2.2,9.2,5.4c3.3-5.5,5.2-11.9,5.2-18.8V31.4h0v-1.7c-0.1-0.3-0.4-0.6-0.7-0.6h-11.8   c-6.9,0-12.5,5.7-12.5,12.6v13.6c0,5.6-4.5,10.1-10,10.1H79.5c-5.1,0-9.5-3.7-10.4-8.7c-1.6-8.8-5.7-16.8-12-23.1   c-7.9-8-18.4-12.5-29.6-12.8v8.7c8.9,0.3,17.2,3.8,23.5,10.2c6.5,6.6,10.1,15.4,10.1,24.7h-4c0-8.3-3.2-16-9-21.9   c-5.5-5.6-12.8-8.8-20.6-9v7.7c5.8,0.2,11.2,2.6,15.3,6.8c4.3,4.4,6.7,10.2,6.7,16.4h-4c0-5.1-2-10-5.6-13.6   c-3.4-3.4-7.7-5.3-12.5-5.6V54c2.4,0.2,4.7,1.3,6.4,3c2,2,3.1,4.6,3.1,7.4v11C37,81,38.3,86.3,40.5,91z M121.9,34.3   c1.4,0,2.6,1.2,2.6,2.6s-1.2,2.6-2.6,2.6s-2.6-1.2-2.6-2.6S120.5,34.3,121.9,34.3z M70.6,88.1c0.8-4.6,4.8-8.1,9.6-8.1h0.2v4h-0.2   c-3.2,0-5.7,2.6-5.7,5.8v2h-2c-1.3,0-2.4,1.1-2.4,2.4c0,1.3,1.1,2.4,2.3,2.4h15.4c7.9,0,14.3-6.5,14.3-14.5v-7.3h4v7.3   c0,10.2-8.2,18.5-18.3,18.5H72.5c-3.5,0-6.3-2.9-6.3-6.4C66.1,91.3,68,88.9,70.6,88.1z"></path><path d="M144,43.3l-0.5-0.8c-2.3-4.2-6.5-6.9-11.2-7.2v8H144z"></path><path d="M132.3,45.4v11.8c2.8-0.5,5-2.9,5-5.9C137.2,48.4,135.1,45.9,132.3,45.4z"></path><path d="M37.2,102.9c0-2.4,0.4-4.8,1.1-7c-6.2,0.8-11.9,4.6-11.9,9.1c0,1.1,0.3,2.1,0.9,3h10.7C37.4,106.4,37.2,104.7,37.2,102.9z"></path><path d="M50.4,88.6c-5.1,0-9.2,7.3-9.2,14.4c0,1.9,0.3,3.6,0.8,5.1h16.8c0.5-1.5,0.8-3.2,0.8-5.1C59.6,95.8,55.5,88.6,50.4,88.6z"></path><path d="M114.9,108c0.3-1.1,0.7-2.1,1.2-3.2c1.4-3.1,3.5-5.8,5.9-7.9c-1.6-2.4-3.8-4-6.2-4c-5.1,0-9.2,7.3-9.2,14.4   c0,0.3,0,0.5,0,0.8H114.9z"></path><path d="M119.7,106.5c-0.2,0.5-0.4,1-0.6,1.6h19.1c0.5-4.8-0.8-9.2-4.1-10.7c-0.8-0.3-1.6-0.5-2.4-0.5   C127.3,96.8,122.2,101.1,119.7,106.5z"></path><path d="M128.2,131.8H152v-11h-7.3v-2h7.3c-0.5-4.9-4.7-8.8-9.7-8.8H17.7c-5.4,0-9.7,4.4-9.7,9.8v1.8h28v1v1H8v8.2h38v1v1H8v5.9   h144v-5.9h-23.8v-1V131.8z M106.7,118.8h16.4v2h-16.4V118.8z M65.8,121.6h13.1v2H65.8V121.6z M43.6,123.6v-2H50v2H43.6z    M114.2,133.8H71.2v-1v-1h42.9v1V133.8z"></path></g></svg>