<svg height='300px' width='300px'  fill="#FFFFFF" xmlns:dc="http://purl.org/dc/elements/1.1/" xmlns:cc="http://creativecommons.org/ns#" xmlns:rdf="http://www.w3.org/1999/02/22-rdf-syntax-ns#" xmlns:svg="http://www.w3.org/2000/svg" xmlns="http://www.w3.org/2000/svg" xmlns:sodipodi="http://sodipodi.sourceforge.net/DTD/sodipodi-0.dtd" xmlns:inkscape="http://www.inkscape.org/namespaces/inkscape" version="1.1" x="0px" y="0px" viewBox="0 0 100 100"><g transform="translate(0,-952.36218)"><path d="m 67.46869,957.65575 c -1.9944,1.9813 -1.9972,2.9783 -1,3.9688 1.99439,-0.9906 3.97436,-1.9688 5.96875,-1.9688 -0.9972,1.9811 -2,2.9469 -2,3.9376 5.60923,0.9284 10.33661,7.0868 10.90625,12.75 -3.04741,3.0982 -5.34244,7.0341 -3.28125,14.0624 l -2.625,3.9063 c 9.97197,18.82085 2.9812,33.67505 -25.9375,35.65635 -4.98599,2.9715 -11.94871,1.9839 -15.9375,-2.9688 -12.96355,-5.9435 -24.9318902,-16.8348 -22.9375,-25.7501 21.93833,2.9717 21.91425,-6.94105 35.875,-13.87495 -0.9972,-2.9717 -1.96875,-6.9345 -1.96875,-9.9062 0,-6.9341 5.98557,-11.894 11.96875,-13.875 0.9972,-1.9814 2.97435,-3.9469 4.96875,-4.9376 -0.3324,0.9907 -1,1.9783 -1,2.9688 2.99159,-1.9813 5.0056,-3.9688 7,-3.9688 z m 5.9375,14.8126 c -2.20914,0 -4,2.0152 -4,4.5 0,2.4848 1.79086,4.5 4,4.5 2.20914,0 4,-2.0152 4,-4.5 0,-2.4849 -1.79086,-4.5 -4,-4.5 z m 2,1.5 c 0.55228,0 1,0.6716 1,1.5 0,0.8281 -0.44772,1.5 -1,1.5 -0.55228,0 -1,-0.6719 -1,-1.5 0,-0.8284 0.44772,-1.5 1,-1.5 z m 7.03125,4.1562 c 3.46573,2.5289 5.96875,8.4119 5.96875,10.2188 l -0.0312,0 c -3.31899,-0.4648 -6.75547,-2.4343 -9.21875,-4.0626 0.30095,-1.8701 1.78967,-4.4631 3.28125,-6.1562 z m -3.375,8.4375 c 2.19223,1.3436 4.1889,2.1623 7.0625,2.3437 -2.20015,0.3595 -4.39202,0.1825 -6.59375,-0.5312 -0.22953,-0.7669 -0.44993,-1.4929 -0.46875,-1.8125 z m -18.625,5.5 c -0.20808,0 -0.39065,0.1071 -0.59375,0.25 -0.37697,0.3587 -0.51749,1.0057 -0.15625,1.4063 3.92444,4.29726 4.92454,8.00675 4.3125,10.93735 -0.61204,2.9311 -2.87662,5.2899 -6.0625,6.7501 -6.09889,2.6868 -15.66613,3.3432 -21.8125,1.875 -3.07318,-0.7339 -5.16557,-2.0139 -5.75,-3.375 -0.29222,-0.6802 -0.29863,-1.448 0.125,-2.4687 0.42363,-1.0207 1.3327,-2.2585 2.875,-3.6876 0.38453,-0.3599 0.42247,-1.0531 0.0625,-1.4375 -0.35997,-0.3844 -1.05297,-0.3913 -1.4375,-0.031 -1.67943,1.5561 -2.79139,3.0002 -3.375,4.4064 -0.58356,1.4061 -0.60526,2.8092 -0.0937,4 1.02283,2.3814 3.76915,3.7296 7.125,4.5313 6.7117,1.6028 16.42115,0.9391 23.09375,-2 3.60387,-1.6519 6.44781,-4.4645 7.21875,-8.1564 0.77094,-3.6917 -0.58009,-8.08709 -4.78125,-12.68745 -0.29593,-0.2196 -0.54192,-0.3165 -0.75,-0.3125 z m 21.4375,30.53135 c 0.49999,0.8659 -2.08047,2.3436 -3.8125,3.3437 7.06217,-1.768 11.03131,-2.8971 11.53125,-2.0313 -0.36603,1.366 -6.21009,1.2813 -11.40625,4.2813 2.23206,-0.134 8.06251,-0.054 8.5625,0.8125 -0.36601,1.3661 -7.19678,-0.4464 -14.625,2.6875 -2.59808,1.5 -3.32148,4.241 -4.6875,3.875 -0.49999,-0.866 0.73669,-2.759 1.96875,-4.625 l -2.1875,-3.6563 c 1.29296,-0.5401 2.48818,-1.1383 3.59375,-1.7812 l 1.90625,1.2188 c 2.59809,-1.5 5.9204,-3.5028 9.15625,-4.125 z m -42.46875,9.375 c 1.04645,0.3146 2.10696,0.5077 3.1875,0.5624 l 1.8125,5.4063 c 3,0 6.88651,-0.079 10,1 0,1 -3,1 -5,1 7,2 11,3 11,4 -1,1 -6,-2 -12,-2 2,1 7,4 7,5 -1,1 -6,-4 -14,-5 -3,0 -5,2 -6,1 0,-1 2,-2 4,-3 l 0,-7.9687 z" style="color:#000000;enable-background:accumulate;" fill="#FFFFFF" stroke="none" marker="none" visibility="visible" display="inline" overflow="visible"></path></g></svg>