<svg height='300px' width='300px'  fill="#FFFFFF" xmlns="http://www.w3.org/2000/svg" xmlns:xlink="http://www.w3.org/1999/xlink" version="1.1" x="0px" y="0px" viewBox="0 0 100 100" enable-background="new 0 0 100 100" xml:space="preserve"><path d="M94.731,16.672c-1.496-3.517-4.962-5.99-9.013-6.046c-0.002-0.002-0.004-0.003-0.006-0.004  c-0.021,0-0.042,0.002-0.064,0.002c-0.023,0-0.045-0.003-0.067-0.003c-0.734,0-1.447,0.084-2.135,0.235  c-0.102,0.021-0.201,0.046-0.301,0.07c-0.045,0.011-0.09,0.02-0.134,0.032c-4.575,1.147-7.25,4.873-7.477,5.2  c-0.148-0.09-0.296-0.18-0.451-0.263h0c-3.867-2.059-8.655-1.044-11.354,2.407L52.038,33.25  c-14.388,1.625-27.088,10.326-33.761,23.29l-3.151,6.122h7.341c11.09,0,21.24-5.487,27.517-14.077h3.43  c-2.034,3.154-4.541,6.011-7.453,8.433c-6.652,5.532-14.776,8.457-23.494,8.457h-8.788L5,82.335l22.5-5.625h12.126l-2.766,9.857  H35.58l-1.679,2.813h13.798l-2.582-2.813h-5.335l2.766-9.857h0.082c2.619,0,5.156-0.281,7.59-0.808l2.992,10.665h-1.386  l-1.679,2.813h13.798l-2.582-2.813h-5.229l-3.19-11.37c17.821-5.39,29.145-24.361,23.782-43.468l1.934-3.35h5.484l-0.247-0.631  c-0.719-1.839-2.191-3.271-4.029-3.948c-0.018-2.245-0.875-4.436-2.433-6.102l0.934-1.255c1.198-1.478,3.023-2.426,5.074-2.426  c2.939,0,5.422,1.93,6.254,4.59c0.399,1.278,1.629,2.13,3.004,1.924C94.605,20.243,95.485,18.445,94.731,16.672z M74.568,24.611  c-0.884,0-1.601-0.717-1.601-1.601c0-0.884,0.717-1.601,1.601-1.601c0.884,0,1.601,0.717,1.601,1.601  C76.169,23.894,75.452,24.611,74.568,24.611z"></path></svg>