<svg height='300px' width='300px'  fill="#FFFFFF" xmlns="http://www.w3.org/2000/svg" xmlns:xlink="http://www.w3.org/1999/xlink" version="1.1" x="0px" y="0px" viewBox="0 0 1000 1000" enable-background="new 0 0 1000 1000" xml:space="preserve"><path d="M807.745,421.967c-2.728-13.151-12.216-32.2-16.739-39.554c-9.025-14.67-20.967-27.747-36.504-39.978  c-13.329-10.491-27.66-19.06-40.305-26.62c-3.49-2.087-6.896-4.123-10.181-6.136c8.058-2.81,14.021-8.897,15.897-16.855  c1.651-7-0.146-14.665-5.06-21.585c-2.891-4.07-6.803-7.88-11.692-11.396c5.789-7.038,9.232-15.908,12.4-24.065  c4.011-10.33,7.8-20.088,15.064-23.735c3.225-1.619,5.156-5.021,4.894-8.62s-2.668-6.684-6.094-7.817  c-6.06-2.004-12.544-3.021-19.276-3.021c-10.104,0-21.171,2.249-33.596,6.848c-1.906-5.587-5.109-11.043-9.59-16.314  c-6.264-7.369-14.845-14.174-25.506-20.226c-18.485-10.493-41.771-17.543-57.946-17.543c-3.3,0-6.296,0.295-8.905,0.876  c-3.915,0.872-6.766,4.251-6.968,8.258c-0.201,4.006,2.298,7.654,6.105,8.914c5.396,1.785,12.512,7.409,18.572,14.676  c0.011,0.013,0.021,0.026,0.032,0.039c-5.207-0.835-10.854-1.282-16.698-1.282c-12.086,0-23.978,1.97-34.39,5.697  c-12.787,4.577-23.236,11.65-31.058,21.022c-2.424,2.904-2.752,7.022-0.818,10.273c1.935,3.252,5.709,4.93,9.418,4.186  c9.565-1.918,19.339-2.931,28.264-2.931c1.239,0,2.458,0.02,3.653,0.061c-2.252,0.786-4.451,1.669-6.594,2.651  c-8.586,3.933-16.251,9.414-22.782,16.292c-11.132,11.724-15.185,23.661-15.353,24.163c-1.139,3.424-0.102,7.196,2.625,9.558  c2.728,2.361,6.609,2.847,9.835,1.229c3.308-1.658,6.515-3.421,9.616-5.126c8.103-4.453,15.817-8.694,23.139-9.783  c-6.967,4.616-11.943,9.95-15.366,14.569c-6.936,9.361-9.118,17.765-9.344,18.692c-0.858,3.525,0.504,7.219,3.445,9.342  c2.94,2.124,6.876,2.254,9.951,0.329c1.202-0.752,2.427-1.53,3.612-2.283c8.586-5.454,18.317-11.636,25.72-11.636  c2.249,0,8.031,0.001,14.493,11.979c-1.384,23.889,2.703,57.587,5.44,80.153c0.803,6.616,1.496,12.335,1.798,15.86  c1.09,15.273,0.482,33.412-1.623,48.533c-2.659,19.089-7.701,33.445-14.197,40.424c-3.089,3.319-6.321,4.865-10.173,4.865  c-2.463,0.001-5.255-0.634-8.297-1.886c-0.103-0.043-0.207-0.083-0.312-0.122c-12.843-4.73-13.997-19.858-15.063-48.427  c-0.833-22.306-1.869-50.065-12.688-78.235c-5.907-15.38-14.327-29.686-25.026-42.519c-12.18-14.608-27.819-27.937-46.484-39.614  c-0.101-0.063-0.202-0.124-0.305-0.182c-45.932-26.255-91.651-39.567-135.888-39.567c-15.606,0-31.035,1.685-45.855,5.007  c-11.884,2.664-23.409,6.382-34.256,11.051c-18.693,8.046-29.027,16.206-29.458,16.55c-3.414,2.722-4.355,7.515-2.225,11.325  s6.707,5.519,10.813,4.036c0.333-0.12,33.708-12.021,69.951-12.021c5.325,0,10.435,0.256,15.32,0.766  c-13.585,4.162-26.411,9.965-38.369,17.375c-18.011,11.16-34.051,25.943-47.676,43.938c-23.093,30.5-31.228,59.562-31.563,60.784  c-1.204,4.394,1.097,8.989,5.337,10.657c4.24,1.667,9.056-0.129,11.167-4.167c0.095-0.182,9.733-18.385,29.55-36.669  c23.179-21.386,49.63-33.521,78.776-36.171c-24.749,8.662-46.791,23.086-65.233,42.897c-17.21,18.486-30.892,41.44-39.564,66.38  c-4.033,11.597-6.934,23.445-8.621,35.214c-1.663,11.595-2.117,22.892-1.353,33.576c0.31,4.32,3.68,7.79,7.988,8.231  c4.31,0.44,8.313-2.282,9.492-6.45c0.083-0.292,8.497-29.547,28.984-58.233c26.726-37.423,60.523-56.398,100.454-56.398  c1.091,0,2.188,0.015,3.29,0.043c-8.316,2.961-16.582,6.679-24.401,11.039c-18.507,10.318-43.572,29.202-57.887,60.573  c-1.8,3.946-0.501,8.614,3.078,11.063c3.579,2.449,8.401,1.968,11.426-1.139c0.323-0.332,32.806-33.171,77.094-33.171  c12.721,0,25.361,2.747,37.563,8.163c29.469,13.105,31.613,34.028,33.505,52.488c0.946,9.23,1.763,17.203,6.027,23.432  c12.453,18.128,24.552,34.014,35.227,48.029c40.92,53.728,65.628,86.169,56.833,163.387c-2.227,15.535-4.514,31.523-5.113,47.584  c-2.081-0.667-5.218-2.087-9.935-4.902c-3.24-1.933-7.347-1.619-10.255,0.785c-2.907,2.405-3.987,6.379-2.696,9.925  c5.899,16.204,14.908,22.184,21.486,26.55c4.782,3.175,7.745,5.141,9.309,10.69c-9.448,4.046-17.353,7.852-23.559,11.345  c-3.847,2.164-5.531,6.816-3.962,10.942c1.338,3.517,4.697,5.749,8.332,5.749c0.628,0,1.265-0.057,1.9-0.194  c15.27-3.324,28.346-3.981,44.495-3.981c3.293,0,6.599,0.223,10.098,0.25c3.643,0.028,7.409,0.275,11.313,0.275  c0.003,0,0.004,0,0.006,0c15.001,0,33.543-0.628,57.326-3.664c4.55-0.581,7.918-4.648,7.785-9.234s-3.721-8.366-8.297-8.684  c-12.961-0.899-47.794-3.907-53.049-5.131c-10.941-3.345-17.68-10.609-20.597-22.184c-6.977-27.68,10.562-73.118,29.733-92.279  c0.038-0.039,0.077-0.082,0.115-0.121c18.099-18.771,44.385-38.275,72.215-58.924c19.575-14.525,39.817-29.545,58.99-45.58  c21.949-18.357,39.095-35.289,52.418-51.764c7.821-9.671,14.511-19.439,19.883-29.031c5.85-10.447,10.363-21.087,13.414-31.622  c3.273-11.302,4.975-22.856,5.057-34.342C812.814,446.451,811.138,434.181,807.745,421.967z"></path></svg>