<svg height='300px' width='300px'  fill="#ffffff" xmlns="http://www.w3.org/2000/svg" viewBox="0 0 64 64" x="0px" y="0px"><title>turkey, chicken, food, meal, dinner, </title><g><path d="M33.69,33.08a6.88,6.88,0,0,0,9,10.41,23.53,23.53,0,0,0,5-7.21c1.44-3.17,1.72-5.72.77-6.82h0a3.59,3.59,0,0,0-2.78-.92C41.93,28.54,36.1,31,33.69,33.08Z"></path><path d="M50.63,29l5-4.31L56,26.25a1.73,1.73,0,0,0,.36.73,1.8,1.8,0,0,0,1.31.61A2.17,2.17,0,0,0,59.21,27,2.22,2.22,0,0,0,60,25.59a1.8,1.8,0,0,0-.41-1.39,1.93,1.93,0,0,0-2.21-.43l-.67.28-1.72-2,.37-.62a1.93,1.93,0,0,0-.1-2.25,1.8,1.8,0,0,0-1.31-.61,2.19,2.19,0,0,0-1.53.56,2.23,2.23,0,0,0-.77,1.44A1.8,1.8,0,0,0,52,22a1.73,1.73,0,0,0,.67.46l1.52.61-5,4.31Z"></path><path d="M35,55H4v1.5a.5.5,0,0,0,.5.5H17.33L21,59.75a1.46,1.46,0,0,0,.84.25H42.15a1.46,1.46,0,0,0,.85-.25L46.67,57H59.5a.5.5,0,0,0,.5-.5V55Z"></path><path d="M22.05,52.95,23,53H34v-.09h1.09c.65.06,1.29.09,1.91.09,9.93,0,18-7,18-15.5a13.82,13.82,0,0,0-2.35-7.64L51,31.31a14.75,14.75,0,0,1-1.51,5.8A25.53,25.53,0,0,1,44,45a8.81,8.81,0,0,1-5.79,2.16l-.66,0a8.88,8.88,0,0,1-5.15-15.57c2.68-2.32,9.93-5.63,14.56-4.9l1.39-1.2A19.84,19.84,0,0,0,37,22a19.17,19.17,0,0,0-14,5.73l-.28.29-.41,0C12.62,28.45,5,33.92,5,40.5S12.49,52.44,22.05,52.95ZM20,39h2v2H20Zm-3-4h2v2H17Zm0,8h2v2H17Zm-3-4h2v2H14Z"></path><path d="M24.26,18.77l1.28-1.53c-1.94-1.62-2.86-3-2.66-4,.1-.53.5-.89,1.13-1.43a5,5,0,0,0,1.85-2.49c.55-2-.52-4.27-3.26-7L21.2,3.71c2.12,2.09,3.07,3.83,2.74,5a3.24,3.24,0,0,1-1.21,1.5,4.5,4.5,0,0,0-1.8,2.58C20.57,14.65,21.66,16.59,24.26,18.77Z"></path><path d="M32.4,18.77l1.28-1.53c-1.94-1.62-2.86-3-2.66-4,.1-.53.5-.89,1.13-1.43A5,5,0,0,0,34,9.26c.55-2-.52-4.27-3.26-7L29.34,3.71c2.12,2.09,3.07,3.83,2.74,5a3.24,3.24,0,0,1-1.21,1.5,4.5,4.5,0,0,0-1.8,2.58C28.71,14.65,29.8,16.59,32.4,18.77Z"></path><path d="M40.26,18.77l1.28-1.53c-1.94-1.62-2.86-3-2.66-4,.1-.53.5-.89,1.13-1.43a5,5,0,0,0,1.85-2.49c.55-2-.52-4.27-3.26-7L37.2,3.71c2.12,2.09,3.07,3.83,2.74,5a3.24,3.24,0,0,1-1.21,1.5,4.5,4.5,0,0,0-1.8,2.58C36.57,14.65,37.66,16.59,40.26,18.77Z"></path></g></svg>