<svg xmlns="http://www.w3.org/2000/svg" width="1280" height="800"><defs><clipPath id="a"><path d="M0 0h1280v800H0z"/></clipPath></defs><g data-name="Web 1280 – 1" clip-path="url(#a)"><path fill="#fff" d="M0 0h1280v800H0z"/><g data-name="Ellipse 2" transform="rotate(51 278.331 -84.175)" fill="none" stroke="#241f20" opacity=".1"><ellipse cx="202" cy="207" rx="202" ry="207" stroke="none"/><ellipse cx="202" cy="207" rx="201.5" ry="206.5"/></g><g data-name="Ellipse 3" transform="translate(-139 -133)" fill="none" stroke="#241f20" opacity=".1"><ellipse cx="160" cy="162" rx="160" ry="162" stroke="none"/><ellipse cx="160" cy="162" rx="159.5" ry="161.5"/></g><g data-name="Component 2 – 1" transform="rotate(65 185.144 -37.896)"><circle data-name="Ellipse 4" cx="150" cy="150" r="150" fill="#02843d"/><g data-name="Ellipse 5" transform="translate(48 47)" fill="#fff" stroke="#707070"><ellipse cx="100" cy="107.5" rx="100" ry="107.5" stroke="none"/><ellipse cx="100" cy="107.5" rx="99.5" ry="107" fill="none"/></g></g><g data-name="Component 3 – 1" transform="translate(632 61)"><ellipse data-name="Ellipse 6" cx="274.5" cy="319" rx="274.5" ry="319" fill="#8bc34a"/><ellipse data-name="Ellipse 7" cx="189.5" cy="251" rx="189.5" ry="251" transform="translate(85 68)" fill="#fff"/></g><g data-name="Ellipse 8" transform="translate(826.536 267)" fill="none" stroke="#241f20" opacity=".1"><ellipse cx="82" cy="92" rx="82" ry="92" stroke="none"/><ellipse cx="82" cy="92" rx="81.5" ry="91.5"/></g><path data-name="Polygon 1" d="m591.643 82.002-20.818 29.425-14.937-24.858Z" fill="#8bc34a"/><path data-name="Polygon 1" d="m551.341 271.493 31.754 17.072-22.852 17.864Z" fill="#00e676"/><path data-name="Polygon 1" d="m1157.821 154.273 35.467 6.432-16.217 24.042Z" fill="#8bc34a"/><path data-name="Polygon 1" d="m994.861 310.047-10.706 34.418-21.887-19.026Z" fill="#00e676"/><path data-name="Polygon 1" d="m942.593 259.547-10.706 34.418L910 274.94Z" fill="#02843d"/><path data-name="Polygon 1" d="m901.13 418.547-10.707 34.418-21.887-19.026Z" fill="#4caf50"/><path data-name="Polygon 1" d="m850.593 310.047-10.706 34.418L818 325.44Z" fill="#00e676"/><path data-name="Polygon 1" d="m674.325 510.047-10.706 34.418-21.887-19.026Z" fill="#4caf50"/><path data-name="Polygon 1" d="m974.57 361.978 30.818 18.704-23.751 16.646Z" fill="#8bc34a"/><path data-name="Polygon 1" d="m165.323 705.117-16.52 32.036-18.25-22.537Z" fill="#02843d"/><path data-name="Polygon 1" d="m391.303 678.351 35.16-7.936-5.533 28.467Z" fill="#a2cf6e"/><circle data-name="Ellipse 9" cx="5" cy="5" r="5" transform="translate(79 437)" fill="#00e676"/><circle data-name="Ellipse 9" cx="5" cy="5" r="5" transform="translate(128 592)" fill="#02843d"/><circle data-name="Ellipse 9" cx="5" cy="5" r="5" transform="translate(594 534)" fill="#4caf50"/><circle data-name="Ellipse 9" cx="5" cy="5" r="5" transform="translate(936 317)" fill="#00e676"/><circle data-name="Ellipse 9" cx="5" cy="5" r="5" transform="translate(547 191)" fill="#a2cf6e"/><circle data-name="Ellipse 9" cx="5" cy="5" r="5" transform="translate(1120 621)" fill="#00e676"/><circle data-name="Ellipse 9" cx="5" cy="5" r="5" transform="translate(393 65)" fill="#00e676"/><circle data-name="Ellipse 9" cx="5" cy="5" r="5" transform="translate(664 664)" fill="#02843d"/><circle data-name="Ellipse 9" cx="5" cy="5" r="5" transform="translate(887 732)" fill="#00e676"/><circle data-name="Ellipse 9" cx="5" cy="5" r="5" transform="translate(707 90)" fill="#a2cf6e"/><circle data-name="Ellipse 9" cx="5" cy="5" r="5" transform="translate(1220 742)" fill="#00e676"/><circle data-name="Ellipse 9" cx="5" cy="5" r="5" transform="translate(1115 65)" fill="#02843d"/><circle data-name="Ellipse 9" cx="5" cy="5" r="5" transform="translate(707 467)" fill="#00e676"/><circle data-name="Ellipse 9" cx="5" cy="5" r="5" transform="translate(953.536 362)" fill="#00e676"/><circle data-name="Ellipse 9" cx="5" cy="5" r="5" transform="translate(903 80)" fill="#8bc34a"/><g data-name="Component 2 – 2" transform="rotate(-2 -6601.908 -13811.71)"><circle data-name="Ellipse 4" cx="150" cy="150" r="150" fill="#00e676"/><ellipse data-name="Ellipse 5" cx="100" cy="107.5" rx="100" ry="107.5" transform="translate(48 47)" fill="#fff"/></g></g></svg>