<svg xmlns="http://www.w3.org/2000/svg" xmlns:xlink="http://www.w3.org/1999/xlink" width="1280" height="800" viewBox="0 0 1280 800">
  <defs>
    <clipPath id="clip-Web_1280_1">
      <rect width="1280" height="800"/>
    </clipPath>
  </defs>
  <g id="Web_1280_1" data-name="Web 1280 – 1" clip-path="url(#clip-Web_1280_1)">
    <rect width="1280" height="800" fill="#fff"/>
    <g id="Ellipse_2" data-name="Ellipse 2" transform="translate(-181 -161)" fill="none" stroke="#241f20" stroke-width="1" opacity="0.1">
      <ellipse cx="202" cy="207" rx="202" ry="207" stroke="none"/>
      <ellipse cx="202" cy="207" rx="201.5" ry="206.5" fill="none"/>
    </g>
    <g id="Ellipse_3" data-name="Ellipse 3" transform="translate(-139 -115)" fill="none" stroke="#241f20" stroke-width="1" opacity="0.1">
      <ellipse cx="160" cy="162" rx="160" ry="162" stroke="none"/>
      <ellipse cx="160" cy="162" rx="159.5" ry="161.5" fill="none"/>
    </g>
    <g id="Component_2_1" data-name="Component 2 – 1" transform="translate(-64.892 -161.339) rotate(25)">
      <circle id="Ellipse_4" data-name="Ellipse 4" cx="150" cy="150" r="150" fill="#02843d"/>
      <g id="Ellipse_5" data-name="Ellipse 5" transform="translate(48 47)" fill="#fff" stroke="#707070" stroke-width="1">
        <ellipse cx="100" cy="107.5" rx="100" ry="107.5" stroke="none"/>
        <ellipse cx="100" cy="107.5" rx="99.5" ry="107" fill="none"/>
      </g>
    </g>
    <g id="Component_3_1" data-name="Component 3 – 1" transform="translate(632 61)">
      <ellipse id="Ellipse_6" data-name="Ellipse 6" cx="274.5" cy="319" rx="274.5" ry="319" fill="#8bc34a"/>
      <ellipse id="Ellipse_7" data-name="Ellipse 7" cx="189.5" cy="251" rx="189.5" ry="251" transform="translate(85 68)" fill="#fff"/>
    </g>
    <g id="Ellipse_8" data-name="Ellipse 8" transform="translate(826.536 267)" fill="none" stroke="#241f20" stroke-width="1" opacity="0.1">
      <ellipse cx="82" cy="92" rx="82" ry="92" stroke="none"/>
      <ellipse cx="82" cy="92" rx="81.5" ry="91.5" fill="none"/>
    </g>
    <path id="Polygon_1" data-name="Polygon 1" d="M14.5,0,29,33H0Z" transform="translate(584.175 69.573) rotate(59)" fill="#8bc34a"/>
    <path id="Polygon_1-2" data-name="Polygon 1" d="M14.5,0,29,33H0Z" transform="matrix(0.788, -0.616, 0.616, 0.788, 539.915, 280.425)" fill="#00e676"/>
    <path id="Polygon_1-3" data-name="Polygon 1" d="M14.5,0,29,33H0Z" transform="translate(1149.713 166.294) rotate(-56)" fill="#8bc34a"/>
    <path id="Polygon_1-4" data-name="Polygon 1" d="M14.5,0,29,33H0Z" transform="translate(983.918 300.534) rotate(41)" fill="#00e676"/>
    <path id="Polygon_1-5" data-name="Polygon 1" d="M14.5,0,29,33H0Z" transform="translate(931.65 250.034) rotate(41)" fill="#02843d"/>
    <path id="Polygon_1-6" data-name="Polygon 1" d="M14.5,0,29,33H0Z" transform="translate(890.186 409.034) rotate(41)" fill="#4caf50"/>
    <path id="Polygon_1-7" data-name="Polygon 1" d="M14.5,0,29,33H0Z" transform="translate(839.65 300.534) rotate(41)" fill="#00e676"/>
    <path id="Polygon_1-8" data-name="Polygon 1" d="M14.5,0,29,33H0Z" transform="translate(663.382 500.534) rotate(41)" fill="#4caf50"/>
    <path id="Polygon_1-9" data-name="Polygon 1" d="M14.5,0,29,33H0Z" transform="matrix(0.819, -0.574, 0.574, 0.819, 962.695, 370.301)" fill="#8bc34a"/>
    <path id="Polygon_1-10" data-name="Polygon 1" d="M14.5,0,29,33H0Z" transform="translate(156.198 693.848) rotate(51)" fill="#02843d"/>
    <path id="Polygon_1-11" data-name="Polygon 1" d="M14.5,0,29,33H0Z" transform="translate(388.536 692.585) rotate(-79)" fill="#a2cf6e"/>
    <circle id="Ellipse_9" data-name="Ellipse 9" cx="5" cy="5" r="5" transform="translate(79 437)" fill="#00e676"/>
    <circle id="Ellipse_9-2" data-name="Ellipse 9" cx="5" cy="5" r="5" transform="translate(128 592)" fill="#02843d"/>
    <circle id="Ellipse_9-3" data-name="Ellipse 9" cx="5" cy="5" r="5" transform="translate(594 534)" fill="#4caf50"/>
    <circle id="Ellipse_9-4" data-name="Ellipse 9" cx="5" cy="5" r="5" transform="translate(936 317)" fill="#00e676"/>
    <circle id="Ellipse_9-5" data-name="Ellipse 9" cx="5" cy="5" r="5" transform="translate(547 191)" fill="#a2cf6e"/>
    <circle id="Ellipse_9-6" data-name="Ellipse 9" cx="5" cy="5" r="5" transform="translate(1120 621)" fill="#00e676"/>
    <circle id="Ellipse_9-7" data-name="Ellipse 9" cx="5" cy="5" r="5" transform="translate(393 65)" fill="#00e676"/>
    <circle id="Ellipse_9-8" data-name="Ellipse 9" cx="5" cy="5" r="5" transform="translate(664 664)" fill="#02843d"/>
    <circle id="Ellipse_9-9" data-name="Ellipse 9" cx="5" cy="5" r="5" transform="translate(887 732)" fill="#00e676"/>
    <circle id="Ellipse_9-10" data-name="Ellipse 9" cx="5" cy="5" r="5" transform="translate(707 90)" fill="#a2cf6e"/>
    <circle id="Ellipse_9-11" data-name="Ellipse 9" cx="5" cy="5" r="5" transform="translate(1220 742)" fill="#00e676"/>
    <circle id="Ellipse_9-12" data-name="Ellipse 9" cx="5" cy="5" r="5" transform="translate(1115 65)" fill="#02843d"/>
    <circle id="Ellipse_9-13" data-name="Ellipse 9" cx="5" cy="5" r="5" transform="translate(707 467)" fill="#00e676"/>
    <circle id="Ellipse_9-14" data-name="Ellipse 9" cx="5" cy="5" r="5" transform="translate(953.536 362)" fill="#00e676"/>
    <circle id="Ellipse_9-15" data-name="Ellipse 9" cx="5" cy="5" r="5" transform="translate(903 80)" fill="#8bc34a"/>
    <g id="Component_2_2" data-name="Component 2 – 2" transform="translate(559.447 -278.678) rotate(25)">
      <circle id="Ellipse_4-2" data-name="Ellipse 4" cx="150" cy="150" r="150" fill="#00e676"/>
      <ellipse id="Ellipse_5-2" data-name="Ellipse 5" cx="100" cy="107.5" rx="100" ry="107.5" transform="translate(48 47)" fill="#fff"/>
    </g>
  </g>
</svg>
