<svg height='300px' width='300px'  fill="#0f1742" xmlns="http://www.w3.org/2000/svg" xmlns:xlink="http://www.w3.org/1999/xlink" version="1.1" x="0px" y="0px" viewBox="0 0 1024 1024" style="enable-background:new 0 0 1024 1024;" xml:space="preserve"><g><path d="M601.8,679c-34.2,0-69.9-0.2-88.8-0.4l0.3-40c24.2,0.2,106.3,0.7,147.2,0c8.5-0.2,16.2-4.6,20.7-11.8l0.5-0.9   c2.4-3.9,3.7-8.4,3.7-13c0-4.8-1.4-9.5-4-13.5l33.5-21.8c6.9,10.5,10.5,22.8,10.5,35.3c0,12.1-3.4,23.9-9.7,34.1l-0.5,0.9   c-11.6,18.7-31.8,30.2-53.9,30.6C645.4,678.9,623.9,679,601.8,679z"></path><path d="M345.5,878.2c-16,0-29-13-29-29s13-29,29-29s29,13,29,29S361.5,878.2,345.5,878.2z M345.5,838.2c-6.1,0-11,4.9-11,11   c0,6.1,4.9,11,11,11s11-4.9,11-11C356.5,843.1,351.6,838.2,345.5,838.2z"></path><path d="M419.1,817.6l-25.3-31l51.3-42c16-13.1,36.3-20,57-19.3l130,4.1c37.5,1.2,74.6-12.9,101.9-38.7l74.9-70.7   c0.2-0.2,0.4-0.4,0.7-0.6l91.6-108.2l0.3-0.3c2.6-2.8,4-6.5,4-10.3c0-3.9-1.5-7.6-4.1-10.4c-8.8-9.5-12.8-11-21.2-11   c-2.7,0-5.5,0.3-8.2,0.9c-11.7,2.6-19.4,9.9-32,22.7c-1.1,1.1-2.3,2.3-3.4,3.5l-48.9,52.1c-3.3,3.3-7,6.2-11.1,8.5l-71.8,41.1   h-17.6l-5.9-8.8c-4.6-6.9-12.3-11-20.6-11H604v-40h56.6c15.4,0,30.1,5.5,41.6,15.1l54.4-31.1c0.9-0.5,1.7-1.1,2.4-1.8l49-52.2   c1.2-1.2,2.4-2.4,3.5-3.6c13.8-13.9,28-28.3,51.8-33.6c5.6-1.2,11.3-1.9,16.9-1.9c23.6,0,37.2,9.5,50.5,23.7   c9.6,10.3,14.8,23.6,14.8,37.7c0,13.7-5.1,26.8-14.2,37l-91.7,108.3l-0.2,0.3c-1,1-2,2.1-3,3l-74.9,70.7   c-35,33-82.6,51.1-130.6,49.6l-130-4.1c-11-0.3-21.8,3.3-30.4,10.3L419.1,817.6z"></path><path d="M628,451.5c-16.8,0-30.5-13.7-30.5-30.5s13.7-30.5,30.5-30.5c16.8,0,30.5,13.7,30.5,30.5S644.8,451.5,628,451.5z    M628,411.5c-5.2,0-9.5,4.3-9.5,9.5s4.3,9.5,9.5,9.5s9.5-4.3,9.5-9.5S633.2,411.5,628,411.5z"></path><path d="M655.9,527.3c-21,0-42.2-5.2-61.5-15.7c-14.7-8-27.6-18.7-38.2-31.9c-44.6-55-36.2-136,18.8-180.6   c4.5-3.6,9.3-7.1,14.4-10.1l0.7-0.4c0.4-0.2,0.8-0.5,1.2-0.7c6.5-3.8,13.3-7,20.4-9.6c32.5-11.9,67.8-10.3,98.7,4.2l161.3-130.9   c4.8-3.9,10.8-5.7,16.8-5.1l0.2,0l46.2,4.8c6.2,0.7,11.8,3.7,15.7,8.5c3.9,4.8,5.7,10.9,5,17l-4.8,46.1c-0.6,6.1-3.7,11.8-8.4,15.6   l-30.9,25.1l-12.1-2l-0.6,12.2l-34,27.6l-12.1-2l-0.6,12.3l-34,27.6l-12.1-2l-0.6,12.2L781,369.6c7.5,32,2.5,65.7-14.4,94.4   c-0.4,0.6-0.7,1.2-1.1,1.8l-0.3,0.4c-7.6,12.3-17.1,23.2-28.4,32.3C713.3,517.6,684.8,527.3,655.9,527.3z M610.1,323.2   c-3.5,2.1-6.8,4.5-9.9,7c-37.8,30.7-43.7,86.5-12.9,124.3c7.3,9,16.2,16.4,26.3,21.9c31.6,17.2,70.1,13.7,98-9   c7.8-6.3,14.4-13.8,19.6-22.2l0.1-0.2c0.2-0.4,0.5-0.8,0.7-1.2l0.1-0.1c13.1-22.3,15.8-49.2,7.4-73.6c-0.1-0.3-0.2-0.5-0.3-0.7   l-4.9-13.4l32-26l1.8-39.2l38.7,6.3l6.1-5l1.8-39.2l38.7,6.3l6.1-5l1.8-39.2l38.7,6.3l11.5-9.3l2.4-22.6l-22.6-2.4L714.1,330.9   l-12.1-7.6c-0.2-0.1-0.5-0.3-0.7-0.4c-22.7-13.5-51-16.2-75.9-7.1c-4.8,1.8-9.6,4-14,6.6c-0.3,0.2-0.6,0.3-0.8,0.5L610.1,323.2z    M915.8,172.7C915.8,172.7,915.8,172.7,915.8,172.7L915.8,172.7z"></path><path d="M338.8,959.4c-10.5,0-21-4.2-28.8-12.5l-222-238.1c-7.2-7.7-10.9-17.7-10.5-28.2c0.4-10.5,4.8-20.2,12.5-27.4l80.9-75.4   c7.7-7.2,17.7-10.9,28.2-10.5c10.5,0.4,20.2,4.8,27.4,12.5l222,238.1c14.8,15.8,13.9,40.8-1.9,55.6l0,0l-80.9,75.4   C358.1,955.9,348.4,959.4,338.8,959.4z M117.8,682.1l221.1,237.1l79.9-74.5L197.7,607.6L117.8,682.1z M419.2,844.2   C419.2,844.2,419.2,844.2,419.2,844.2L419.2,844.2z"></path><rect x="133.8" y="459" width="40" height="33.9"></rect><path d="M133.8,667.1V528.6h40v46.8c7.2-5.5,16-8.4,25.2-8c10.5,0.4,20.2,4.8,27.4,12.5l9.3,10l49.5-49.8l0.4-0.4   c0.7-0.7,1.5-1.3,2.2-2l0.1-0.1c0.4-0.3,0.8-0.6,1.1-1l0.1-0.1c5.6-4.7,12.2-9.3,19.6-13.5c13-7.5,26.9-13.1,41.5-16.7   c13-3.3,26.5-4.9,40.1-4.9c20.6,0,40.8,3.8,60.1,11.2l81.2,31.2c10.4,2.9,21.1,4.3,31.9,4.3H584v-42.8c-10.4-7-19.7-15.6-27.8-25.5   c-44.6-55-36.2-136,18.8-180.6c2.6-2.1,5.3-4.1,8.1-6.1L378.9,117.3L141,322h32.9v97.2h-40V362H89.1c-8.6,0-16.4-5.4-19.4-13.4   c-3-8-0.8-17.2,5.7-22.9l0.2-0.2L379,64.6l278.4,239.5l-32,11.7c-4.8,1.8-9.5,4-14,6.6c-0.3,0.2-0.6,0.4-0.9,0.5l-0.4,0.2   c-3.5,2.1-6.8,4.5-9.9,7c-37.8,30.7-43.7,86.5-12.9,124.3c7.3,9,16.2,16.4,26.3,21.9l10.4,5.7V588h-60.4c-14.8,0-29.4-2-43.6-6.1   l-0.9-0.2l-82.9-31.8c-14.7-5.6-30.1-8.5-45.8-8.5c-10.3,0-20.5,1.3-30.4,3.7c-11,2.7-21.5,7-31.2,12.6c-5.3,3.1-10,6.3-13.8,9.5   c-0.2,0.2-0.4,0.3-0.6,0.5c-0.5,0.4-1,0.9-1.5,1.3l-78,78.4l-37.2-39.9L133.8,667.1z"></path><path d="M282.1,594.7V416.5c0-15,12.2-27.2,27.2-27.2h139.1c15,0,27.2,12.2,27.2,27.2v148.6l-39.5-15.2   c-14.7-5.6-30.1-8.5-45.8-8.5c-10.3,0-20.5,1.3-30.4,3.7c-11,2.7-21.5,7-31.2,12.6c-5.3,3.1-10,6.3-13.8,9.5L282.1,594.7z    M322.1,429.3v86.9c9.1-4.1,18.5-7.5,28.2-9.9c13-3.3,26.5-4.9,40.1-4.9c15.4,0,30.5,2.1,45.3,6.2v-78.4H322.1z"></path><path d="M600.1,307.7l-102.5-88.1v-90.8l20.1-0.1H600l0.1,20.1V307.7z M537.7,201.2l22.5,19.3v-51.8h-22.5V201.2z"></path></g></svg>