<svg height='300px' width='300px'  fill="#0f1742" xmlns="http://www.w3.org/2000/svg" data-name="Layer 1" viewBox="0 0 64 64" x="0px" y="0px"><title>risk management-crisis management-diversification-conversion-alternative</title><path d="M16,61a27.54,27.54,0,0,0,8-7.76v4.15a4.57,4.57,0,0,0,1.31,3.24A4.37,4.37,0,0,0,28.5,62,4.44,4.44,0,0,0,32,60.25,4.44,4.44,0,0,0,35.5,62a4.36,4.36,0,0,0,3.18-1.36A4.58,4.58,0,0,0,40,57.39V53.24A27.54,27.54,0,0,0,48,61,27.7,27.7,0,0,0,60.62,41.06L61,38,48,31l-2,1.08V23.66a7.67,7.67,0,0,0-4.63-7,7.57,7.57,0,0,0-3-.62H25.66a7.57,7.57,0,0,0-3,.62,7.67,7.67,0,0,0-4.63,7v8.42L16,31,3,38l.38,3.06A27.7,27.7,0,0,0,16,61ZM51.11,40.55a1,1,0,0,1,1.78.9l-5,10a1,1,0,0,1-.76.54H47a1,1,0,0,1-.74-.33l-3-3.33a1,1,0,0,1,.07-1.42,1,1,0,0,1,1.41.08l2,2.24ZM20,23.66a5.64,5.64,0,0,1,3.43-5.2A5.4,5.4,0,0,1,25.66,18H29a3,3,0,0,0,1.67,2.69l-1.54,8.42a2.51,2.51,0,0,0,.16,1.41L32,36l2.71-5.48a2.51,2.51,0,0,0,.16-1.41l-1.54-8.42A3,3,0,0,0,35,18h3.34a5.4,5.4,0,0,1,2.23.46A5.64,5.64,0,0,1,44,23.66v9.49l-4,2.16V28a1,1,0,0,0-2,0v7.84h0v.53L35,38l.38,3.06A27.83,27.83,0,0,0,38,49.83v7.56a2.66,2.66,0,0,1-.75,1.86A2.4,2.4,0,0,1,35.5,60,2.56,2.56,0,0,1,33,57.39V40a1,1,0,0,0-2,0V57.39A2.56,2.56,0,0,1,28.5,60a2.41,2.41,0,0,1-1.76-.76A2.65,2.65,0,0,1,26,57.39V49.83a27.83,27.83,0,0,0,2.62-8.77L29,38l-3-1.62V28a1,1,0,0,0-2,0v7.31l-4-2.16ZM11.33,46.92a1,1,0,0,1,1.41.08l2,2.24,4.35-8.69a1,1,0,0,1,1.78.9l-5,10a1,1,0,0,1-.76.54H15a1,1,0,0,1-.74-.33l-3-3.33A1,1,0,0,1,11.33,46.92Z"></path><circle cx="32" cy="9" r="6"></circle></svg>