<svg height='300px' width='300px'  fill="#0f1742" xmlns="http://www.w3.org/2000/svg" xmlns:xlink="http://www.w3.org/1999/xlink" version="1.1" x="0px" y="0px" viewBox="0 0 100 100" enable-background="new 0 0 100 100" xml:space="preserve"><path d="M79.123,78.648l-4.776-38.889c-0.154-1.254-1.219-2.195-2.481-2.195h-4.398v-7.39c-0.001-7.601-6.184-13.784-13.782-13.784  c-1.224,0-2.404,0.176-3.535,0.477c-1.161-0.311-2.356-0.477-3.567-0.477c-7.602,0-13.785,6.184-13.785,13.784v7.39h-4.798  c-1.267,0-2.332,0.946-2.482,2.204l-4.641,38.89c-0.085,0.709,0.139,1.42,0.613,1.955c0.474,0.535,1.154,0.84,1.869,0.84h53.283  c0.716,0,1.397-0.307,1.872-0.844C78.988,80.074,79.21,79.359,79.123,78.648z M62.467,30.174v7.39h-3.353v-7.39  c-0.001-3.247-1.248-6.26-3.349-8.524C59.604,22.589,62.466,26.049,62.467,30.174z M44.9,30.174c0-4.194,2.957-7.707,6.895-8.574  c2.949,1.791,4.818,5.009,4.819,8.574v7.39H44.9V30.174z M37.797,30.174c0-3.246,1.773-6.078,4.398-7.599  c-1.447,2.181-2.295,4.792-2.295,7.599v7.39h-2.104V30.174z M26.175,76.453l4.044-33.889h1.396v26.389c0,0.691,0.56,1.25,1.25,1.25  s1.25-0.559,1.25-1.25V42.564h1.603l4.162,33.889H26.175z M42.397,76.453l-4.162-33.889H39.9v1.586c0,1.381,1.119,2.5,2.5,2.5  s2.5-1.119,2.5-2.5v-1.586h17.566v1.586c0,1.381,1.119,2.5,2.5,2.5s2.5-1.119,2.5-2.5v-1.586h2.187l4.162,33.889H42.397z"></path></svg>