<svg height='300px' width='300px'  fill="#0f1742" xmlns="http://www.w3.org/2000/svg" xmlns:xlink="http://www.w3.org/1999/xlink" version="1.1" x="0px" y="0px" viewBox="0 0 100 100" enable-background="new 0 0 100 100" xml:space="preserve"><path d="M68.281,27.263h5.625v7.031h-5.625V27.263z M15.3,76.23l0.052,1.762l2.794,11.146h2.851L19.529,77.98h2.603v2.554  c0,0.483,0.391,0.874,0.874,0.874c0.483,0,0.874-0.391,0.874-0.874V77.98h2.245v2.554c0,0.483,0.391,0.874,0.874,0.874  c0.483,0,0.874-0.391,0.874-0.874v-2.578l3.439-4.175l-12.094-2.633L15.3,76.23z M46.085,73.978l1.485,2.775l-2.94,12.385H41.78  l1.981-15.158L46.085,73.978z M74.983,76.552v10.682c0,1.052-0.853,1.904-1.904,1.904h-2.38L54.417,72.267v16.871H51.56  L50.355,77.98l-2.996-5.716l-14.937,0.003L18.52,69.242l-4.95,6.453v13.443h-2.856L9.57,73.41l1.143-6.855L9.57,58.628V48.273  c-1.26,0-2.285,1.025-2.285,2.285v21.709H5V50.558c0-2.524,2.046-4.57,4.57-4.57h43.671c2.127,0,4.077,1.183,5.06,3.068  l12.683,24.377l7.141-0.024L74.983,76.552z M95,66.638H69.43l-1.463-2.813h8.752l-5.625-7.5l-4.15,5.534l-1.44-2.768l3.832-5.11  l-5.273-7.031v9.371l-2.813-5.406v-9.59h19.688v22.5h11.25V28.722L72.056,14.273L50,28.759V44.23h-2.813V27.242l24.939-16.38  L95,27.279V66.638z M71.094,51.638l5.625-7.5h-11.25L71.094,51.638z M78.125,46.951l-5.273,7.031l5.273,7.031V46.951z"></path></svg>