<svg height='300px' width='300px'  fill="#0f1742" xmlns="http://www.w3.org/2000/svg" data-name="Layer 1" viewBox="0 0 100 100" x="0px" y="0px"><title>All</title><path d="M34.81,0a32.1,32.1,0,0,1,4.94,2.16c3.32,2.15,4.66,5.49,4.69,9.33q0.09,10.74,0,21.47c0,4.7-2.11,8.33-6.41,10.34a13,13,0,0,1-5.16,1.07c-7.07.12-14.15,0.08-21.22,0-5.91,0-10-3.31-11.41-9.06A5.54,5.54,0,0,0,0,34.78Q0,22.24,0,9.69C0.11,9.46.2,9.23,0.26,9c0.67-2.73,1.87-5.19,4.32-6.7A40.45,40.45,0,0,1,9.72,0H34.81Z"></path><path d="M0,65.09A33.76,33.76,0,0,1,2.41,60a9.66,9.66,0,0,1,8.23-4.33c7.62-.08,15.23-0.05,22.85,0a11,11,0,0,1,11,11.28c0.05,7.24.09,14.49,0,21.73-0.09,6.49-4.49,11.09-10.94,11.24-7.49.17-15,.16-22.48,0C5.47,99.78,1.7,96.53.27,91.12,0.21,90.88.11,90.66,0,90.44Q0,77.76,0,65.09Z"></path><path d="M90.22,0a14.32,14.32,0,0,1,5.61,2.49,10.09,10.09,0,0,1,4,7.65c0.14,6.16.09,12.33,0.11,18.5,0,1.57,0,3.15,0,4.72A11.08,11.08,0,0,1,88.52,44.42c-7.16,0-14.32.06-21.48,0C60.52,44.34,55.86,40,55.7,33.57c-0.19-7.57-.17-15.15,0-22.72C55.81,5.33,59.17,1.54,64.57.22A4.2,4.2,0,0,0,65.12,0H90.22Z"></path><path d="M99.9,77.76c0,4,.14,8,0,11.92A10.51,10.51,0,0,1,89.75,99.82q-12,.28-24,0A10.42,10.42,0,0,1,55.74,89.75q-0.27-12,0-24a10.4,10.4,0,0,1,10-10.08q12-.27,24.08,0a10.5,10.5,0,0,1,10,10c0.18,4,0,8,0,12h0Z"></path></svg>