<svg height='300px' width='300px'  fill="#0f1742" xmlns="http://www.w3.org/2000/svg" xmlns:xlink="http://www.w3.org/1999/xlink" version="1.1" x="0px" y="0px" viewBox="0 0 100 100" enable-background="new 0 0 100 100" xml:space="preserve"><g><path d="M37,33h48c2.8,0,5-2.2,5-5s-2.2-5-5-5H37c-2.8,0-5,2.2-5,5S34.2,33,37,33z"></path><circle cx="18" cy="50" r="8"></circle><circle cx="18" cy="27" r="8"></circle><path d="M85,45H37c-2.8,0-5,2.2-5,5s2.2,5,5,5h48c2.8,0,5-2.2,5-5S87.8,45,85,45z"></path><circle cx="18" cy="72" r="8"></circle><path d="M85,67H37c-2.8,0-5,2.2-5,5s2.2,5,5,5h48c2.8,0,5-2.2,5-5S87.8,67,85,67z"></path></g></svg>