<svg height='300px' width='300px'  fill="#02843d" xmlns="http://www.w3.org/2000/svg" data-name="Layer 1" viewBox="0 0 70 70" x="0px" y="0px"><path d="M60.35,42.3a7.25,7.25,0,0,0,1.82-6.41A7.25,7.25,0,0,0,49,33.34a7.75,7.75,0,0,0-.9,1.91h0a32.61,32.61,0,0,0-13-1.89L38,36.19a3,3,0,0,1-4.19,4.31l-5.29-5.22a7,7,0,0,1-2.44.51,23.38,23.38,0,0,0-7.36,5.82A12.18,12.18,0,0,0,16,49.11h-.62a7.51,7.51,0,0,0,0,15H41.52a1,1,0,0,0,0-2H15.38a5.51,5.51,0,0,1,0-11h.79a11.4,11.4,0,0,0,1,3,10.62,10.62,0,0,0,9.82,6H38.28a3.28,3.28,0,0,0-.49-2.67,2.33,2.33,0,0,0-2.31-1H31.59a1,1,0,0,1,0-2A5.46,5.46,0,1,0,26.13,49a1,1,0,0,1-2,0A7.46,7.46,0,1,1,39,49a7.4,7.4,0,0,1-2.44,5.49,4.24,4.24,0,0,1,2.84,1.85,5.52,5.52,0,0,1,.89,3.8H54.66a3.32,3.32,0,0,0-.49-2.67,2.34,2.34,0,0,0-2.32-1H48a1,1,0,1,1,0-2h3.73a4.3,4.3,0,0,1,4.13,1.89,5.63,5.63,0,0,1,.89,3.8H60.6a6.49,6.49,0,0,0,4.68-2A6,6,0,0,0,67,53.9v-.22C66.86,49.91,64.34,45.82,60.35,42.3Zm-1,8.81H58a1,1,0,1,1,0-2h1.35a1,1,0,0,1,0,2Z"></path><path d="M36.55,37.62l-6.31-6.21a5.52,5.52,0,0,0,.93-3.07,5.46,5.46,0,0,0-1.62-3.83L18.46,13.58a2.73,2.73,0,0,0,.38-1.41A2.7,2.7,0,0,0,18,10.23a2.86,2.86,0,0,0-1.95-.79,2.74,2.74,0,0,0-1.93.82L11.5,12.94,8.53,10l2.41-2.44A1,1,0,1,0,9.51,6.16L6.41,9.32h0L3.29,12.47a1,1,0,1,0,1.43,1.41l2.41-2.45,3,2.93L7.46,17a2.76,2.76,0,0,0,0,3.89,2.72,2.72,0,0,0,1.93.79,2.8,2.8,0,0,0,1.42-.4l2,2,2.95-3a1,1,0,0,1,1.41,0,1,1,0,0,1,0,1.42l-2.95,3,1.18,1.16,2-2a1,1,0,0,1,1.42,1.41l-2,2L18,28.41l2.95-3a1,1,0,0,1,1.42,1.41l-2.95,3L20.64,31l2-2A1,1,0,0,1,24,29a1,1,0,0,1,0,1.42l-2,2a5.36,5.36,0,0,0,3.66,1.43h0a5.32,5.32,0,0,0,3-1l6.31,6.22a1,1,0,1,0,1.41-1.43Z"></path></svg>