<svg height='300px' width='300px'  fill="#02843d" xmlns="http://www.w3.org/2000/svg" xmlns:xlink="http://www.w3.org/1999/xlink" version="1.1" x="0px" y="0px" viewBox="0 0 100 100" enable-background="new 0 0 100 100" xml:space="preserve"><g><g><path d="M24.411,62.693c0.453,0,0.821-0.367,0.821-0.821v-2.422l3.23-3.921l-11.359-2.473l-3.678,4.773l0.049,1.655l2.624,10.72    h2.677l-1.378-10.731h2.445v2.399c0,0.453,0.367,0.821,0.821,0.821s0.821-0.367,0.821-0.821v-2.399h2.109v2.399    C23.59,62.325,23.958,62.693,24.411,62.693z"></path><path d="M5.896,35.864c0-1.183,0.963-2.146,2.146-2.146v7.579l1.073,7.445l-1.073,6.439l1.073,15.024h2.683l0-12.878l4.65-6.06    l13.057,2.841l12.886-0.004l2.616,5.37l1.132,10.731h2.683V54.016c2.353-0.345,4.461-1.708,5.729-3.767l5.555-9.022l4.293,1.073    l3.462,0.005l1.24,0.328c1.019,0.34,2.141-0.001,2.8-0.85c0.718-0.926,0.707-2.223-0.027-3.136l-5.881-8.73    c-0.483-0.701-1.136-0.84-2.012-0.671l-0.59-1.326c-0.38-0.853,0.03-1.851,0.899-2.191l4.574-1.79h-5.992    c-2.242,0-3.752,2.294-2.865,4.353l0.68,1.579l-0.401,0.068l-1.819-1.154c-0.57-0.361-1.23-0.553-1.905-0.553h-2.187l2.395,2.302    l-6.144,1.037H34.009l-0.666-2.707l4.832-2.558c2.015-1.067,3.606-2.79,4.508-4.885c0.951-2.208,1.052-4.69,0.285-6.969    l-0.632-1.875v-0.011c-0.059,0.007-0.118,0.011-0.178,0.011h-0.583c-0.839,0-1.522-0.683-1.522-1.522h0.571    c0,0.524,0.427,0.951,0.951,0.951h0.583c0.518,0,0.939-0.421,0.939-0.939v-0.012h0.571h0.571c0-0.463-0.273-0.882-0.695-1.07    l-0.448-0.199l-0.357-0.835c-0.244-0.57-0.804-0.939-1.423-0.939h-1.127c-0.243,0-0.406,0.249-0.309,0.472l0.126,0.289l0.029,0.07    c-0.894,0.208-1.634,0.873-1.918,1.777l-1.246,3.957c-0.276,0.875-1.006,1.531-1.906,1.711l-2.533,0.506l-5.489-6.287    l-0.476,0.703c-1.055,1.558-1.62,3.397-1.62,5.278v0c0,2.303,0.821,4.531,2.316,6.284l0.715,0.839v1.712l4.566,3.615l0.644,2.633    H8.043c-2.367,0-4.293,1.926-4.293,4.293v18.243h2.146V35.864z M41.767,9.849c0.184,0,0.333,0.149,0.333,0.333    s-0.149,0.333-0.333,0.333c-0.184,0-0.333-0.149-0.333-0.333S41.583,9.849,41.767,9.849z M29.409,23.231l2.055-3.044h0.689    l-1.67,2.473h2.422c1.874,0,3.618-0.928,4.665-2.482c0.628-0.932,0.96-2.02,0.96-3.144v-0.268h0.571v0.268    c0,1.238-0.366,2.436-1.058,3.463c-1.154,1.712-3.075,2.734-5.139,2.734H29.409z"></path><polygon points="36.953,70.205 39.63,70.205 42.391,58.321 41.083,55.715 38.814,55.716   "></polygon><polygon points="85.624,80.52 87.13,80.52 88.162,78.792 89.485,72.544 85.175,74.015 86.086,76.286 86.086,78.792   "></polygon><polygon points="68.061,80.52 70.338,74.833 65.934,74.833 66.556,78.792 66.556,80.52   "></polygon><path d="M59.747,58.735l-2.559-2.559v3.206c0,1.49,1.208,2.699,2.699,2.699h0.119l-2.81,5.027l-1.68,0.699    c0-0.286-0.24-0.516-0.529-0.501c-0.271,0.014-0.475,0.258-0.475,0.53v2.648l0,0v0l1.158,0.724    c2.741,1.713,5.909,2.622,9.141,2.622h5.928l1.838,4.963v1.728h1.505l0.587-1.728l0.544-5.9c0.05-0.541-0.143-1.076-0.528-1.46    l-0.938-0.95h1.407l0.402,0.401c0.486,0.486,0.741,1.158,0.699,1.844l-0.067,1.102h4.271c1.425,0,2.841-0.235,4.189-0.696    l5.717-1.953l2.049,5.106l-0.005,2.506l-0.43,1.728h1.505l1.179-1.728l2.571-15.227c0.279-1.701-0.057-3.429-0.92-4.888    c0.624-0.569,1.017-1.386,1.017-2.294c0-1.567-1.166-2.869-2.676-3.078v1.017c0.953,0.201,1.673,1.049,1.673,2.061    c0,0.571-0.229,1.089-0.6,1.468l-0.462-0.549c-1.368-1.405-3.221-2.053-5.19-2.173c-11.228-0.683-27.484,4.972-27.484,4.972    L59.747,58.735z M61.45,66.472h-0.914v-0.936l1.828,0.268L61.45,66.472z"></path><rect x="1.092" y="80.52" width="52.595" height="2.609"></rect><rect x="45.28" y="86.708" width="52.595" height="2.609"></rect><rect x="30.208" y="86.708" width="10.667" height="2.609"></rect></g></g></svg>