<svg height='300px' width='300px'  fill="#02843d" xmlns="http://www.w3.org/2000/svg" xmlns:xlink="http://www.w3.org/1999/xlink" version="1.1" x="0px" y="0px" viewBox="0 0 512 512" style="enable-background:new 0 0 512 512;" xml:space="preserve"><path d="M498.6,148.1l-23.4-13v-12.9c0-26.7-21.7-48.4-48.4-48.4s-48.4,21.7-48.4,48.4V144c0,14.5-8.9,27.4-22.7,32.7  c-20.5,7.9-39.3,20.4-54.6,36.3c-21.3-20-45.9-35.5-73.2-46c-22.4-8.6-36.9-29.4-36.9-53V80.8c0-38.6-31.4-70-70-70s-70,31.4-70,70  V103l-31.5,20.6c-7.9,5.2-11.4,13.4-9,21.3c3,9.9,13.7,16.5,26.7,16.5h13.8V281c0,57.7,22,112,62.1,153.3c0,0,0,0,0,0  c0.8,0.8,1.5,1.6,2.3,2.4c41.6,41.6,96.9,64.5,155.7,64.5h94.2c3.9,0,7-3.1,7-7v-99.8c23.5-7.4,44.2-20.5,60.7-37.4  c0.5-0.4,0.9-0.8,1.2-1.3c25.6-26.8,41-63,41-101.8v-76.3h9.2c11.4,0,20.4-5.4,22.5-13.4C508.2,159.4,506.6,152.5,498.6,148.1z   M64.9,154.5v-47.6c0,0,0,0,0,0v-0.1v-26c0-30.9,25.1-56,56-56s56,25.1,56,56V114c0,18.1,6.8,34.8,18.5,47.6  c-10.4,1-20.4,4.7-29,10.9c-34.6,25-55.3,65.3-55.3,107.9v130.4C82.2,375.3,64.9,330.2,64.9,281V154.5z M349,425.7  c-1.7,0.2-3.6,0.2-5.8-0.1c-9.2-1.3-16.5-8.7-21.2-16.7c-4.8-8-7.7-17-12.6-24.9c-25.5-41.3-90.2-39-121.6-76  c-16-18.9-20.5-45.7-15.4-69.9c4.3-21,21.7-69.9,48.3-58.7c0.7,0.3,1.4,0.6,2.1,0.9c27.7,10.6,52.5,26.7,73.6,47.9  c40,39.9,62,93,62,149.5C358.3,391.6,367.6,423.4,349,425.7z M461.2,253.9c0,28.9-9.4,56.1-25.5,78.3v-78.7c0-28.8-14-56.1-37.4-73  c-4.8-3.5-10.3-5.8-15.9-7c6.4-8.3,10-18.6,10-29.6v-21.9c0-19,15.5-34.4,34.4-34.4s34.4,15.5,34.4,34.4v17c0,0,0,0,0,0v0v31.5  V253.9z"></path></svg>