<svg height='300px' width='300px'  fill="#02843d" xmlns="http://www.w3.org/2000/svg" viewBox="0 0 512 512" x="0px" y="0px"><title>sheep</title><path d="M256,152.47a183.36,183.36,0,0,1-63.24,11.71A153.38,153.38,0,0,1,171,162.65V286a85,85,0,0,0,170,0V162.64C303.12,168.07,269.58,157.64,256,152.47ZM221,216a15,15,0,0,1-30,0V196a15,15,0,0,1,30,0Zm100,0a15,15,0,0,1-30,0V196a15,15,0,0,1,30,0Z"></path><path d="M139.06,194.41a54.21,54.21,0,0,0-36.4,4A54.29,54.29,0,0,0,132.94,219,52.75,52.75,0,0,0,141,220.3V195C140.35,194.76,139.71,194.57,139.06,194.41Z"></path><path d="M512,159.05a77.89,77.89,0,0,0-62.31-76.34,64.19,64.19,0,0,0-54.19-29.6,64.88,64.88,0,0,0-12.08,1.13,64.52,64.52,0,0,0-68.63-25.75,74.9,74.9,0,0,0-117.58,0,64.52,64.52,0,0,0-68.63,25.75,64.88,64.88,0,0,0-12.08-1.13,64.19,64.19,0,0,0-54.19,29.6A77.93,77.93,0,0,0,42.59,228.52,70.85,70.85,0,0,0,60,271.46a65.2,65.2,0,0,0,3,41.31A75.17,75.17,0,0,0,105,444.17a70.52,70.52,0,0,0,78.9,32.9,91.94,91.94,0,0,0,144.26,0,70.52,70.52,0,0,0,78.9-32.9A75.17,75.17,0,0,0,449,312.77,65.2,65.2,0,0,0,452,271.46a70.85,70.85,0,0,0,17.4-42.94A78.36,78.36,0,0,0,512,159.05Zm-68.7,40.51c-11.28,24.61-32.05,42.29-57,48.51A82.22,82.22,0,0,1,371,250.38V286a115,115,0,0,1-230,0V250.38a82.22,82.22,0,0,1-15.31-2.31c-24.94-6.22-45.71-23.9-57-48.51a15,15,0,0,1,4.53-18.16c20-15.28,44.4-21.43,67.77-17.23v-9.32c-4-1.55-7.95-3.29-11.75-5.2a15,15,0,0,1,13.5-26.79,103.89,103.89,0,0,0,17.45,6.86c44.89,13.05,89.05-6.88,89.49-7.08a15.07,15.07,0,0,1,12.65,0c.41.18,44.57,20.11,89.47,7.05a103.24,103.24,0,0,0,17.44-6.85,15,15,0,0,1,13.5,26.79c-3.8,1.91-7.73,3.65-11.75,5.2v9.32c23.37-4.2,47.79,1.94,67.77,17.23A15,15,0,0,1,443.3,199.56Z"></path><path d="M372.94,194.41c-.65.16-1.29.35-1.94.54V220.3a52.75,52.75,0,0,0,8.06-1.34,54.29,54.29,0,0,0,30.28-20.58A54.21,54.21,0,0,0,372.94,194.41Z"></path></svg>